<svg width="1440" height="417" viewBox="0 0 1440 417" fill="none" xmlns="http://www.w3.org/2000/svg">
<mask id="path-1-inside-1_155_1146" fill="white">
<path d="M0 0H1440V416.796H0V0Z"/>
</mask>
<path d="M0 0H1440V416.796H0V0Z" fill="#EEAE0C"/>
<path d="M1440 415.796H0V417.796H1440V415.796Z" fill="#6B430E" mask="url(#path-1-inside-1_155_1146)"/>
<path d="M493.128 363.355C492.82 365.031 492.261 366.476 491.452 367.709C490.643 368.942 489.641 369.944 488.466 370.715C487.29 371.486 486 372.025 484.612 372.333L484.651 371.948C485.788 371.659 486.693 370.985 487.406 369.906C488.119 368.827 488.601 367.42 488.89 365.706L493.899 337.365H491.009L491.047 337.057H500.642L500.603 337.365H497.714L493.128 363.355Z" fill="#6B430E"/>
<path d="M500.293 345.92H506.304L504.108 358.327C503.973 359.079 503.877 359.753 503.8 360.389C503.723 361.025 503.684 361.545 503.684 361.988C503.684 362.778 503.838 363.356 504.146 363.702C504.455 364.049 504.936 364.223 505.572 364.223C506.343 364.223 507.133 363.934 507.942 363.375C508.751 362.816 509.618 361.776 510.543 360.254L511.391 358.828L513.664 345.92H517.325L514.512 361.93C514.435 362.392 514.377 362.739 514.338 362.99C514.3 363.24 514.28 363.433 514.28 363.587C514.28 363.818 514.338 363.991 514.473 364.126C514.608 364.261 514.82 364.319 515.128 364.319H516.554L516.515 364.627H512.778C512.007 364.627 511.468 364.512 511.159 364.261C510.851 364.011 510.697 363.703 510.697 363.317C510.697 363.24 510.697 363.105 510.735 362.932C510.755 362.758 510.813 362.412 510.909 361.93C511.005 361.448 511.14 360.678 511.313 359.657L510.774 360.543C510.061 361.757 509.329 362.681 508.597 363.336C507.865 363.992 507.133 364.435 506.401 364.666C505.668 364.897 504.917 365.013 504.146 365.013C502.913 365.013 501.95 364.724 501.256 364.146C500.563 363.568 500.216 362.489 500.216 360.928C500.216 360.562 500.235 360.177 500.293 359.734C500.351 359.29 500.409 358.828 500.486 358.346L502.644 346.247H500.216L500.293 345.939V345.92Z" fill="#6B430E"/>
<path d="M520.603 351.467C520.603 350.33 520.892 349.328 521.489 348.422C522.087 347.517 522.896 346.823 523.936 346.303C524.977 345.783 526.21 345.532 527.616 345.532C529.215 345.532 530.525 345.764 531.566 346.245C532.606 346.727 533.126 347.478 533.126 348.5C533.126 349.02 532.991 349.444 532.741 349.79C532.49 350.137 532.163 350.407 531.778 350.619C531.392 350.831 531.007 350.966 530.641 351.062C530.275 351.158 529.967 351.216 529.735 351.235L529.658 351.12C530.063 350.715 530.352 350.311 530.506 349.906C530.66 349.501 530.737 349.058 530.737 348.538C530.737 348.095 530.641 347.69 530.448 347.286C530.256 346.881 529.928 346.554 529.485 346.265C529.042 345.976 528.406 345.841 527.578 345.841C526.325 345.841 525.323 346.188 524.591 346.881C523.859 347.575 523.493 348.5 523.493 349.655C523.493 350.484 523.763 351.197 524.283 351.833C524.803 352.468 525.767 353.143 527.154 353.856C528.714 354.645 529.87 355.435 530.583 356.225C531.296 357.015 531.662 357.998 531.662 359.212C531.662 360.31 531.354 361.312 530.756 362.179C530.159 363.046 529.312 363.739 528.213 364.24C527.115 364.741 525.824 364.992 524.341 364.992C522.279 364.992 520.777 364.664 519.813 364.028C518.85 363.392 518.368 362.622 518.368 361.716C518.368 361.1 518.542 360.599 518.908 360.194C519.274 359.79 519.736 359.501 520.295 359.308C520.854 359.115 521.432 359.019 521.99 359.019L522.106 359.096C521.644 359.404 521.335 359.79 521.162 360.271C520.988 360.753 520.911 361.235 520.911 361.716C520.911 362.198 521.008 362.68 521.22 363.142C521.432 363.604 521.778 363.97 522.299 364.259C522.819 364.548 523.512 364.683 524.418 364.683C525.709 364.683 526.711 364.336 527.462 363.662C528.213 362.988 528.579 362.082 528.579 360.984C528.579 360.194 528.348 359.481 527.867 358.865C527.385 358.248 526.441 357.574 525.034 356.861C523.493 356.09 522.376 355.32 521.663 354.53C520.95 353.74 520.603 352.719 520.603 351.467Z" fill="#6B430E"/>
<path d="M535.534 346.226L535.612 345.918H536.035C536.883 345.918 537.654 345.725 538.328 345.321C539.002 344.916 539.638 344.377 540.197 343.683C540.756 342.99 541.276 342.18 541.738 341.256H542.085L541.276 345.918H545.091L545.013 346.226H541.199L538.887 359.482C538.829 359.867 538.79 360.233 538.752 360.561C538.713 360.888 538.694 361.216 538.694 361.524C538.694 362.391 538.848 363.046 539.176 363.489C539.503 363.932 539.985 364.144 540.621 364.144C541.411 364.144 542.085 363.797 542.624 363.104L542.817 363.219C542.374 363.855 541.835 364.317 541.179 364.587C540.524 364.857 539.792 364.992 538.964 364.992C537.789 364.992 536.845 364.645 536.17 363.971C535.496 363.296 535.149 362.295 535.149 360.984C535.149 360.734 535.149 360.464 535.188 360.214C535.207 359.963 535.245 359.694 535.265 359.405L537.577 346.226H535.534Z" fill="#6B430E"/>
<path d="M556.437 337.365L556.475 337.057H565.608C567.631 337.057 569.365 337.442 570.771 338.232C572.178 339.022 573.276 340.159 574.027 341.642C574.778 343.126 575.164 344.956 575.164 347.114C575.164 348.886 574.952 350.62 574.509 352.335C574.066 354.05 573.43 355.629 572.601 357.113C571.773 358.596 570.733 359.887 569.519 361.005C568.305 362.122 566.899 363.008 565.338 363.644C563.777 364.28 562.043 364.608 560.175 364.608H551.62L551.659 364.299H554.549L559.327 337.346H556.437V337.365ZM565.569 337.365H563.142L558.364 364.319H560.213C561.62 364.319 562.91 363.972 564.086 363.259C565.261 362.546 566.282 361.583 567.168 360.35C568.055 359.117 568.806 357.71 569.403 356.111C570 354.512 570.463 352.816 570.79 351.005C571.118 349.194 571.272 347.364 571.272 345.515C571.272 343.973 571.099 342.586 570.733 341.372C570.367 340.159 569.789 339.176 568.96 338.463C568.132 337.75 567.014 337.384 565.569 337.384V337.365Z" fill="#6B430E"/>
<path d="M583.255 345.919L580.404 361.93C580.327 362.45 580.269 362.816 580.25 363.028C580.23 363.24 580.211 363.433 580.211 363.587C580.211 363.818 580.269 363.991 580.385 364.126C580.5 364.261 580.712 364.319 581.02 364.319H582.446L582.407 364.627H578.631C577.88 364.627 577.36 364.511 577.051 364.261C576.743 364.011 576.589 363.702 576.589 363.317C576.589 363.182 576.589 363.047 576.628 362.874C576.647 362.7 576.685 362.508 576.743 362.277L579.556 346.247H577.129L577.206 345.939H583.255V345.919ZM581.984 341.411C581.502 341.411 581.117 341.276 580.828 340.987C580.539 340.698 580.404 340.351 580.404 339.908C580.404 339.446 580.519 339.022 580.731 338.637C580.943 338.251 581.252 337.943 581.637 337.693C582.022 337.442 582.427 337.327 582.87 337.327C583.352 337.327 583.756 337.462 584.045 337.751C584.334 338.04 584.488 338.406 584.488 338.868C584.488 339.33 584.373 339.754 584.141 340.12C583.91 340.486 583.602 340.795 583.236 341.045C582.87 341.296 582.446 341.411 581.984 341.411Z" fill="#6B430E"/>
<path d="M599.767 365.668C599.767 367.036 599.285 368.288 598.341 369.464C597.397 370.639 596.106 371.564 594.507 372.257C592.908 372.951 591.078 373.297 589.055 373.297C588.111 373.297 587.186 373.22 586.319 373.047C585.452 372.874 584.739 372.604 584.219 372.199C583.699 371.795 583.429 371.255 583.429 370.562C583.429 369.637 583.892 368.905 584.836 368.365C585.78 367.826 586.974 367.421 588.438 367.171L589.479 366.978L589.517 367.248L588.785 367.441C588.111 367.652 587.571 367.961 587.128 368.385C586.685 368.808 586.473 369.406 586.473 370.176C586.473 370.947 586.781 371.621 587.398 372.122C588.015 372.623 588.978 372.874 590.288 372.874C591.521 372.874 592.677 372.642 593.737 372.199C594.796 371.756 595.663 371.14 596.338 370.35C597.012 369.56 597.339 368.693 597.339 367.71C597.339 366.997 597.07 366.439 596.511 366.073C595.952 365.707 594.931 365.514 593.448 365.514H589.633C588.381 365.514 587.398 365.302 586.685 364.878C585.972 364.454 585.626 363.799 585.626 362.894C585.626 362.046 585.876 361.275 586.377 360.582C586.878 359.888 587.552 359.31 588.419 358.848C589.286 358.385 590.249 358.077 591.328 357.923C589.787 357.634 588.593 357.017 587.764 356.035C586.936 355.052 586.512 353.839 586.512 352.374C586.512 351.238 586.82 350.159 587.437 349.118C588.053 348.078 588.997 347.23 590.269 346.556C591.54 345.881 593.159 345.554 595.143 345.554C595.625 345.554 596.106 345.592 596.569 345.65C597.031 345.708 597.455 345.804 597.84 345.939H602.927L602.85 346.325H598.804C599.728 346.768 600.422 347.384 600.904 348.174C601.385 348.964 601.617 349.889 601.617 350.91C601.617 352.124 601.308 353.261 600.673 354.359C600.037 355.457 599.093 356.343 597.821 357.017C596.55 357.692 594.931 358.039 592.947 358.039C591.926 358.039 591.001 358.212 590.172 358.539C589.344 358.867 588.708 359.291 588.246 359.773C587.783 360.254 587.552 360.736 587.552 361.198C587.552 361.564 587.726 361.795 588.072 361.93C588.419 362.065 588.997 362.123 589.787 362.123H594.642C596.472 362.123 597.783 362.431 598.573 363.048C599.362 363.664 599.767 364.531 599.767 365.668ZM593.178 357.73C594.353 357.73 595.297 357.345 595.972 356.574C596.646 355.804 597.147 354.84 597.455 353.665C597.763 352.49 597.917 351.315 597.917 350.101C597.917 348.714 597.648 347.654 597.128 346.941C596.607 346.228 595.837 345.862 594.835 345.862C593.679 345.862 592.754 346.248 592.08 346.999C591.405 347.75 590.905 348.714 590.616 349.85C590.327 350.987 590.172 352.143 590.172 353.299C590.172 354.628 590.423 355.707 590.904 356.517C591.386 357.326 592.157 357.73 593.178 357.73Z" fill="#6B430E"/>
<path d="M619.863 364.319L619.824 364.627H610.23L610.268 364.319H613.197L617.936 337.365H615.046L615.085 337.057H624.679L624.641 337.365H621.751L616.973 364.319H619.863Z" fill="#6B430E"/>
<path d="M629.725 351.66L627.452 364.607H623.791L627.028 346.208H624.601L624.678 345.9H630.727L629.88 350.793L630.381 349.984C631.132 348.751 631.864 347.826 632.596 347.191C633.328 346.555 634.08 346.131 634.831 345.88C635.583 345.63 636.334 345.514 637.085 345.514C638.299 345.514 639.243 345.803 639.956 346.381C640.669 346.959 641.016 348.038 641.016 349.599C641.016 349.965 640.996 350.35 640.958 350.774C640.919 351.198 640.842 351.66 640.746 352.181L639.012 361.891C638.935 362.411 638.877 362.777 638.858 362.989C638.839 363.201 638.819 363.394 638.819 363.548C638.819 363.779 638.877 363.952 638.993 364.087C639.108 364.222 639.339 364.28 639.667 364.28H641.093L641.054 364.588H637.278C636.507 364.588 635.968 364.472 635.679 364.222C635.39 363.972 635.236 363.663 635.236 363.278C635.236 363.143 635.236 363.008 635.274 362.835C635.293 362.661 635.332 362.469 635.39 362.238L637.124 352.181C637.259 351.41 637.355 350.716 637.432 350.1C637.509 349.483 637.548 348.963 637.548 348.52C637.548 347.73 637.394 347.152 637.085 346.805C636.777 346.458 636.295 346.285 635.66 346.285C634.87 346.285 634.06 346.574 633.232 347.152C632.404 347.73 631.537 348.77 630.612 350.254L629.725 351.641V351.66Z" fill="#6B430E"/>
<path d="M647.606 362.97C647.606 363.567 647.471 364.184 647.201 364.858C646.932 365.532 646.566 366.187 646.084 366.823C645.602 367.459 645.063 368.037 644.466 368.538C643.868 369.039 643.194 369.424 642.481 369.675L642.404 369.328C643.232 369.02 644.003 368.499 644.735 367.787C645.467 367.074 645.968 366.303 646.219 365.475C645.525 365.32 644.909 365.031 644.388 364.627C643.868 364.222 643.599 363.683 643.599 363.047C643.599 362.488 643.791 361.987 644.196 361.563C644.6 361.14 645.121 360.928 645.795 360.928C646.238 360.928 646.643 361.082 647.028 361.371C647.413 361.66 647.606 362.199 647.606 362.97Z" fill="#6B430E"/>
<path d="M669.744 351.157H667.355L665.005 364.297H670.399C671.305 364.297 672.095 364.027 672.769 363.507C673.443 362.987 674.021 362.255 674.465 361.349C674.908 360.444 675.235 359.423 675.447 358.325H675.832L674.715 364.605H658.242L658.281 364.297H661.209L665.949 337.343H663.059L663.097 337.035H679.377L678.299 343.316H677.913C677.99 342.95 678.048 342.584 678.067 342.199C678.087 341.813 678.106 341.428 678.106 341.043C678.106 340.407 677.99 339.79 677.778 339.232C677.566 338.673 677.22 338.21 676.757 337.864C676.295 337.517 675.698 337.343 674.985 337.343H669.783L667.394 350.83H669.783C670.727 350.83 671.575 350.656 672.287 350.31C673 349.963 673.713 349.5 674.407 348.903L673.675 353.065C673.154 352.39 672.615 351.909 672.037 351.601C671.459 351.292 670.688 351.138 669.744 351.138V351.157Z" fill="#6B430E"/>
<path d="M690.07 361.275C689.607 362.373 688.933 363.279 688.027 363.973C687.122 364.666 686.024 365.013 684.714 365.013C682.883 365.013 681.515 364.416 680.571 363.202C679.627 361.988 679.165 360.389 679.165 358.385C679.165 356.825 679.377 355.283 679.781 353.761C680.186 352.239 680.802 350.871 681.592 349.638C682.382 348.405 683.384 347.423 684.559 346.671C685.735 345.92 687.103 345.554 688.644 345.554C689.646 345.554 690.474 345.766 691.148 346.17C691.823 346.575 692.285 347.114 692.574 347.75L692.921 345.939H696.543L693.769 361.95C693.692 362.412 693.634 362.759 693.595 363.009C693.557 363.26 693.537 363.452 693.537 363.607C693.537 363.838 693.595 364.011 693.711 364.146C693.827 364.281 694.039 364.339 694.347 364.339H695.772L695.734 364.647H691.996C691.206 364.647 690.667 364.531 690.416 364.281C690.166 364.03 690.031 363.722 690.031 363.337C690.031 363.106 690.05 362.797 690.108 362.393C690.166 361.988 690.262 361.352 690.416 360.485L690.07 361.295V361.275ZM682.903 358.809C682.903 359.503 682.941 360.177 682.999 360.813C683.057 361.449 683.191 362.027 683.403 362.547C683.615 363.067 683.924 363.472 684.348 363.761C684.771 364.05 685.349 364.204 686.062 364.204C686.833 364.204 687.565 363.896 688.239 363.298C688.914 362.701 689.434 361.95 689.8 361.083L690.609 359.079L692.459 348.405C692.247 347.789 691.9 347.249 691.38 346.806C690.859 346.363 690.185 346.132 689.337 346.132C688.355 346.132 687.507 346.421 686.794 346.98C686.081 347.538 685.465 348.29 684.964 349.234C684.463 350.178 684.059 351.199 683.75 352.336C683.442 353.472 683.23 354.59 683.095 355.727C682.96 356.863 682.903 357.884 682.903 358.809Z" fill="#6B430E"/>
<path d="M699.972 346.226L700.049 345.918H700.473C701.321 345.918 702.091 345.725 702.766 345.321C703.44 344.916 704.076 344.377 704.634 343.683C705.193 342.99 705.713 342.18 706.176 341.256H706.522L705.713 345.918H709.528L709.451 346.226H705.636L703.324 359.482C703.266 359.867 703.228 360.233 703.189 360.561C703.151 360.888 703.132 361.216 703.132 361.524C703.132 362.391 703.286 363.046 703.613 363.489C703.941 363.932 704.423 364.144 705.058 364.144C705.848 364.144 706.523 363.797 707.062 363.104L707.255 363.219C706.811 363.855 706.272 364.317 705.617 364.587C704.962 364.857 704.23 364.992 703.401 364.992C702.226 364.992 701.282 364.645 700.608 363.971C699.933 363.296 699.587 362.295 699.587 360.984C699.587 360.734 699.587 360.464 699.625 360.214C699.644 359.963 699.683 359.694 699.702 359.405L702.014 346.226H699.972Z" fill="#6B430E"/>
<path d="M751.065 339.253L738.773 365.012H738.118L735.421 347.383L726.751 365.012H726.096L721.935 337.365H719.738L719.777 337.057H728.37L728.331 337.365H725.865C725.865 337.615 725.884 337.962 725.923 338.367C725.961 338.771 726.019 339.176 726.096 339.561L728.947 359.887L735.344 346.748L733.841 337.384H731.837L731.876 337.076H744.206L744.168 337.384H741.663L738.581 343.742L740.854 359.714L750.718 339.118C750.815 338.906 750.892 338.733 750.93 338.579C750.969 338.425 750.988 338.29 750.988 338.155C751.007 337.904 750.911 337.712 750.699 337.577C750.487 337.442 750.083 337.384 749.485 337.384H748.291L748.329 337.076H754.726L754.687 337.384C753.897 337.384 753.281 337.423 752.838 337.519C752.395 337.615 752.067 337.789 751.817 338.058C751.566 338.328 751.316 338.733 751.065 339.272V339.253ZM737.964 339.137L738.465 343.145L741.239 337.365H737.849C737.829 337.596 737.829 337.885 737.849 338.213C737.868 338.54 737.906 338.848 737.964 339.137Z" fill="#6B430E"/>
<path d="M758.234 364.204C759.101 364.204 759.872 363.992 760.527 363.587C761.182 363.183 761.721 362.643 762.145 362.007C762.569 361.372 762.819 360.697 762.896 360.004H763.243C763.108 360.851 762.781 361.661 762.222 362.412C761.663 363.163 760.912 363.799 759.968 364.281C759.024 364.763 757.849 365.013 756.462 365.013C754.439 365.013 752.782 364.377 751.51 363.125C750.238 361.873 749.603 359.984 749.603 357.461C749.603 355.226 750.027 353.203 750.855 351.411C751.683 349.619 752.839 348.193 754.323 347.134C755.806 346.074 757.502 345.554 759.429 345.554C761.355 345.554 762.858 345.882 763.783 346.537C764.708 347.192 765.17 348.097 765.17 349.253C765.17 350.178 764.939 350.987 764.476 351.681C764.014 352.374 763.378 352.952 762.55 353.395C761.721 353.839 760.777 354.185 759.679 354.416C758.581 354.648 757.425 354.763 756.192 354.763H754.766V354.494H756.153C757.483 354.494 758.581 354.224 759.429 353.704C760.276 353.183 760.893 352.471 761.297 351.584C761.702 350.698 761.895 349.735 761.895 348.675C761.895 347.904 761.721 347.249 761.374 346.691C761.028 346.132 760.373 345.862 759.39 345.862C758.33 345.862 757.425 346.17 756.673 346.806C755.922 347.442 755.305 348.29 754.824 349.349C754.342 350.409 753.995 351.604 753.764 352.933C753.533 354.262 753.417 355.611 753.417 356.998C753.417 358.385 753.552 359.541 753.841 360.62C754.13 361.699 754.612 362.566 755.325 363.221C756.038 363.876 757.001 364.204 758.234 364.204Z" fill="#6B430E"/>
<path d="M767.096 362.275L771.681 336.015H769.253L769.331 335.707H775.38L770.795 361.929C770.66 362.776 770.602 363.335 770.602 363.585C770.602 363.817 770.66 363.99 770.776 364.125C770.891 364.26 771.103 364.318 771.411 364.318H772.837L772.799 364.626H769.022C768.252 364.626 767.712 364.51 767.423 364.26C767.134 364.009 766.98 363.701 766.98 363.316C766.98 363.181 766.98 363.046 767.019 362.873C767.038 362.699 767.076 362.507 767.096 362.275Z" fill="#6B430E"/>
<path d="M776.364 362.275L780.949 336.015H778.522L778.599 335.707H784.649L780.063 361.929C779.928 362.776 779.87 363.335 779.87 363.585C779.87 363.817 779.928 363.99 780.044 364.125C780.159 364.26 780.371 364.318 780.68 364.318H782.105L782.067 364.626H778.291C777.52 364.626 776.981 364.51 776.692 364.26C776.403 364.009 776.248 363.701 776.248 363.316C776.248 363.181 776.248 363.046 776.287 362.873C776.306 362.699 776.345 362.507 776.364 362.275Z" fill="#6B430E"/>
<path d="M788.231 362.97C788.231 363.567 788.096 364.184 787.827 364.858C787.557 365.532 787.191 366.187 786.709 366.823C786.227 367.459 785.688 368.037 785.091 368.538C784.494 369.039 783.819 369.424 783.106 369.675L783.029 369.328C783.858 369.02 784.628 368.499 785.361 367.787C786.093 367.074 786.594 366.303 786.844 365.475C786.15 365.32 785.534 365.031 785.014 364.627C784.494 364.222 784.224 363.683 784.224 363.047C784.224 362.488 784.416 361.987 784.821 361.563C785.226 361.14 785.746 360.928 786.42 360.928C786.863 360.928 787.268 361.082 787.653 361.371C788.039 361.66 788.231 362.199 788.231 362.97Z" fill="#6B430E"/>
<path d="M813.298 337.365H810.408L805.63 364.319H811.256C812.2 364.319 813.048 364.049 813.799 363.49C814.55 362.931 815.167 362.199 815.649 361.294C816.13 360.388 816.477 359.406 816.65 358.346H817.036L815.957 364.627H798.868L798.906 364.319H801.835L806.574 337.365H803.684L803.723 337.057H813.317L813.279 337.365H813.298Z" fill="#6B430E"/>
<path d="M826.977 345.919L824.126 361.93C824.048 362.45 823.991 362.816 823.971 363.028C823.952 363.24 823.933 363.433 823.933 363.587C823.933 363.818 823.991 363.991 824.106 364.126C824.222 364.261 824.434 364.319 824.742 364.319H826.168L826.129 364.627H822.353C821.602 364.627 821.081 364.511 820.773 364.261C820.465 364.011 820.311 363.702 820.311 363.317C820.311 363.182 820.311 363.047 820.349 362.874C820.369 362.7 820.407 362.508 820.465 362.277L823.278 346.247H820.85L820.927 345.939H826.977V345.919ZM825.705 341.411C825.224 341.411 824.838 341.276 824.549 340.987C824.26 340.698 824.126 340.351 824.126 339.908C824.126 339.446 824.241 339.022 824.453 338.637C824.665 338.251 824.973 337.943 825.359 337.693C825.744 337.442 826.148 337.327 826.592 337.327C827.073 337.327 827.478 337.462 827.767 337.751C828.056 338.04 828.21 338.406 828.21 338.868C828.21 339.33 828.094 339.754 827.863 340.12C827.632 340.486 827.324 340.795 826.958 341.045C826.592 341.296 826.168 341.411 825.705 341.411Z" fill="#6B430E"/>
<path d="M841.561 354.974L834.934 364.607H834.433L831.35 347.826C831.254 347.21 831.081 346.786 830.869 346.555C830.657 346.324 830.329 346.208 829.925 346.208H829.269L829.346 345.9H833.046C833.682 345.9 834.144 345.977 834.433 346.15C834.722 346.324 834.914 346.67 835.011 347.21L837.323 360.619L841.137 354.916C841.966 353.683 842.525 352.624 842.852 351.737C843.18 350.851 843.334 350.023 843.334 349.252C843.334 348.308 843.064 347.518 842.525 346.921C841.985 346.324 841.33 345.919 840.56 345.707L840.637 345.514C841.619 345.514 842.448 345.572 843.122 345.669C843.796 345.765 844.336 345.957 844.702 346.246C845.068 346.535 845.261 346.959 845.261 347.518C845.261 348.192 844.952 349.117 844.355 350.331C843.758 351.545 842.814 353.086 841.561 354.955V354.974Z" fill="#6B430E"/>
<path d="M854.661 364.204C855.528 364.204 856.298 363.992 856.953 363.587C857.609 363.183 858.148 362.643 858.572 362.007C858.996 361.372 859.246 360.697 859.323 360.004H859.67C859.535 360.851 859.208 361.661 858.649 362.412C858.09 363.163 857.339 363.799 856.395 364.281C855.451 364.763 854.275 365.013 852.888 365.013C850.865 365.013 849.208 364.377 847.937 363.125C846.665 361.873 846.029 359.984 846.029 357.461C846.029 355.226 846.453 353.203 847.282 351.411C848.11 349.619 849.266 348.193 850.75 347.134C852.233 346.074 853.929 345.554 855.855 345.554C857.782 345.554 859.285 345.882 860.209 346.537C861.134 347.192 861.597 348.097 861.597 349.253C861.597 350.178 861.365 350.987 860.903 351.681C860.441 352.374 859.805 352.952 858.976 353.395C858.148 353.839 857.204 354.185 856.106 354.416C855.008 354.648 853.852 354.763 852.619 354.763H851.193V354.494H852.58C853.909 354.494 855.008 354.224 855.855 353.704C856.703 353.183 857.32 352.471 857.724 351.584C858.129 350.698 858.321 349.735 858.321 348.675C858.321 347.904 858.148 347.249 857.801 346.691C857.454 346.132 856.799 345.862 855.817 345.862C854.757 345.862 853.852 346.17 853.1 346.806C852.349 347.442 851.732 348.29 851.251 349.349C850.769 350.409 850.422 351.604 850.191 352.933C849.96 354.262 849.844 355.611 849.844 356.998C849.844 358.385 849.979 359.541 850.268 360.62C850.557 361.699 851.039 362.566 851.752 363.221C852.464 363.876 853.428 364.204 854.661 364.204Z" fill="#6B430E"/>
<path d="M886.628 364.627L884.431 361.275C884.219 361.833 883.93 362.411 883.564 362.989C883.198 363.567 882.697 364.049 882.061 364.434C881.426 364.82 880.616 365.012 879.615 365.012C877.996 365.012 876.59 364.646 875.395 363.895C874.201 363.143 873.276 362.007 872.64 360.485C872.004 358.963 871.677 357.017 871.677 354.685C871.677 353.009 871.85 351.333 872.178 349.638C872.505 347.942 873.025 346.324 873.7 344.763C874.374 343.203 875.241 341.835 876.301 340.621C877.36 339.407 878.593 338.463 880.019 337.75C881.445 337.038 883.063 336.691 884.894 336.691C885.51 336.691 885.992 336.729 886.338 336.806C886.685 336.883 886.994 336.96 887.283 337.037C887.572 337.115 887.918 337.153 888.323 337.153C888.535 337.153 888.747 337.153 888.959 337.115C889.171 337.095 889.383 337.057 889.595 336.999H889.864L888.708 343.742H888.323C888.419 343.126 888.496 342.548 888.516 341.989C888.535 341.43 888.554 340.91 888.554 340.428C888.554 339.754 888.458 339.157 888.246 338.637C888.034 338.116 887.668 337.712 887.148 337.423C886.627 337.134 885.857 336.999 884.855 336.999C883.795 336.999 882.851 337.288 881.984 337.885C881.117 338.482 880.347 339.272 879.672 340.293C878.998 341.315 878.401 342.451 877.9 343.742C877.399 345.033 876.994 346.362 876.686 347.75C876.378 349.137 876.147 350.505 875.973 351.853C875.8 353.202 875.723 354.454 875.723 355.61C875.723 358.616 876.05 360.87 876.705 362.353C877.36 363.837 878.478 364.588 880.038 364.588C880.751 364.588 881.368 364.434 881.888 364.107C882.408 363.779 882.832 363.394 883.198 362.912C883.564 362.431 883.834 361.93 884.046 361.371C884.258 360.812 884.393 360.311 884.47 359.849L885.703 352.451H882.813L882.89 352.142H890.866L890.789 352.451H889.055L886.936 364.627H886.628Z" fill="#6B430E"/>
<path d="M899.666 365.013C897.411 365.013 895.639 364.319 894.348 362.932C893.057 361.545 892.422 359.599 892.422 357.114C892.422 355.592 892.653 354.147 893.134 352.76C893.616 351.372 894.29 350.139 895.177 349.06C896.063 347.982 897.103 347.134 898.317 346.498C899.531 345.862 900.879 345.554 902.363 345.554C904.694 345.554 906.505 346.228 907.758 347.577C909.01 348.926 909.646 350.814 909.646 353.26C909.646 354.802 909.414 356.285 908.952 357.692C908.49 359.098 907.815 360.351 906.929 361.449C906.043 362.547 904.983 363.414 903.769 364.05C902.556 364.685 901.188 365.013 899.666 365.013ZM899.743 364.705C900.61 364.705 901.38 364.435 902.016 363.915C902.652 363.395 903.23 362.662 903.712 361.757C904.193 360.851 904.598 359.83 904.906 358.694C905.214 357.557 905.446 356.382 905.6 355.168C905.754 353.954 905.831 352.779 905.831 351.642C905.831 349.85 905.58 348.425 905.06 347.404C904.54 346.382 903.615 345.862 902.286 345.862C901.457 345.862 900.725 346.132 900.09 346.652C899.454 347.172 898.876 347.904 898.394 348.81C897.912 349.715 897.508 350.737 897.18 351.873C896.853 353.01 896.622 354.185 896.467 355.399C896.313 356.613 896.236 357.788 896.236 358.925C896.236 360.717 896.506 362.142 897.026 363.163C897.546 364.184 898.452 364.705 899.743 364.705Z" fill="#6B430E"/>
<path d="M919.317 365.013C917.062 365.013 915.29 364.319 913.999 362.932C912.708 361.545 912.072 359.599 912.072 357.114C912.072 355.592 912.304 354.147 912.785 352.76C913.267 351.372 913.941 350.139 914.827 349.06C915.714 347.982 916.754 347.134 917.968 346.498C919.182 345.862 920.53 345.554 922.014 345.554C924.345 345.554 926.156 346.228 927.408 347.577C928.661 348.926 929.296 350.814 929.296 353.26C929.296 354.802 929.065 356.285 928.603 357.692C928.141 359.098 927.466 360.351 926.58 361.449C925.694 362.547 924.634 363.414 923.42 364.05C922.206 364.685 920.839 365.013 919.317 365.013ZM919.394 364.705C920.261 364.705 921.031 364.435 921.667 363.915C922.303 363.395 922.881 362.662 923.363 361.757C923.844 360.851 924.249 359.83 924.557 358.694C924.865 357.557 925.096 356.382 925.251 355.168C925.405 353.954 925.482 352.779 925.482 351.642C925.482 349.85 925.231 348.425 924.711 347.404C924.191 346.382 923.266 345.862 921.937 345.862C921.108 345.862 920.376 346.132 919.74 346.652C919.105 347.172 918.527 347.904 918.045 348.81C917.563 349.715 917.159 350.737 916.831 351.873C916.504 353.01 916.272 354.185 916.118 355.399C915.964 356.613 915.887 357.788 915.887 358.925C915.887 360.717 916.157 362.142 916.677 363.163C917.197 364.184 918.103 364.705 919.394 364.705Z" fill="#6B430E"/>
<path d="M944.77 336.015L944.847 335.707H950.897L946.312 361.929C946.234 362.391 946.177 362.738 946.138 362.988C946.1 363.239 946.08 363.431 946.08 363.585C946.08 363.817 946.138 363.99 946.254 364.125C946.369 364.26 946.581 364.318 946.889 364.318H948.315L948.277 364.626H944.539C943.749 364.626 943.21 364.51 942.921 364.26C942.632 364.009 942.497 363.701 942.497 363.316C942.497 363.142 942.535 362.834 942.593 362.41C942.651 361.986 942.786 361.312 942.959 360.387L942.574 361.274C942.131 362.295 941.476 363.181 940.57 363.913C939.665 364.645 938.566 365.011 937.256 365.011C935.33 365.011 933.923 364.395 933.018 363.181C932.112 361.967 931.669 360.349 931.669 358.345C931.669 356.784 931.881 355.243 932.286 353.74C932.69 352.238 933.307 350.87 934.116 349.617C934.925 348.365 935.908 347.382 937.083 346.65C938.258 345.918 939.607 345.552 941.148 345.552C942.169 345.552 943.017 345.764 943.691 346.188C944.366 346.612 944.828 347.151 945.117 347.787L947.236 336.035H944.77V336.015ZM935.407 359C935.407 359.694 935.445 360.349 935.503 360.985C935.561 361.62 935.715 362.179 935.927 362.661C936.139 363.142 936.466 363.528 936.871 363.817C937.276 364.106 937.854 364.241 938.566 364.241C939.356 364.241 940.108 363.913 940.782 363.277C941.456 362.641 941.977 361.909 942.304 361.081L943.19 358.923L945.001 348.442C944.789 347.806 944.423 347.248 943.903 346.785C943.383 346.323 942.689 346.092 941.842 346.092C940.859 346.092 940.011 346.381 939.299 346.959C938.586 347.537 937.969 348.288 937.487 349.232C937.006 350.176 936.601 351.197 936.293 352.334C935.985 353.471 935.754 354.607 935.619 355.763C935.484 356.919 935.407 357.998 935.407 359Z" fill="#6B430E"/>
<path d="M952.401 365.012C951.881 365.012 951.457 364.82 951.11 364.453C950.763 364.087 950.59 363.644 950.59 363.163C950.59 362.623 950.802 362.122 951.226 361.641C951.65 361.159 952.189 360.928 952.825 360.928C953.364 360.928 953.807 361.101 954.154 361.467C954.501 361.833 954.675 362.257 954.675 362.777C954.675 363.297 954.463 363.818 954.058 364.299C953.653 364.781 953.095 365.012 952.401 365.012Z" fill="#6B430E"/>
<path d="M827.902 134.954C848.921 128.576 868.053 118.442 884.564 104.185C889.438 99.6769 893.561 94.0511 896.952 88.4253C902.578 77.9252 898.07 61.78 885.315 55.7689C875.181 50.8945 864.681 50.8945 853.795 51.6459C850.039 52.0119 846.282 53.1487 842.544 53.5147C835.782 54.2661 829.79 50.8945 827.902 44.8834C825.647 38.1209 828.268 31.7437 835.03 28.7382C838.787 27.2354 842.91 25.7326 847.033 25.3666C857.919 24.6152 869.17 23.4977 880.056 24.2491C907.067 25.3666 926.584 40.7604 933.712 63.6488C939.723 82.0289 938.221 99.6769 929.204 116.554C928.453 118.057 927.701 119.56 926.95 121.429C928.819 122.546 930.321 123.683 931.824 124.434C975.732 147.323 983.978 207.742 950.956 244.521C932.576 265.156 908.917 275.675 882.657 281.667C863.525 286.175 844.008 286.541 824.491 282.784C803.472 279.027 788.849 267.39 781.72 247.142C779.851 242.633 779.1 237.759 779.1 232.884C778.734 214.119 778.349 195.354 778.349 176.222C778.349 160.077 778.349 143.566 779.466 127.054C780.583 105.283 782.086 83.1464 783.974 61.3754C784.726 54.9982 786.595 48.6211 788.483 42.61C789.6 39.9897 791.488 37.3502 793.742 35.0961C796.748 31.3391 800.871 30.2217 805.745 31.3392C811.005 32.8419 814.377 35.8475 815.128 41.4732C816.245 47.4843 817.382 53.8615 817.748 60.6047C820.368 84.6299 822.623 109.021 824.877 133.412C824.877 133.778 825.243 134.164 825.628 134.915H827.882L827.902 134.954ZM787.75 242.652C791.507 259.164 802.759 268.913 817.401 275.675C818.904 276.041 821.158 276.792 822.661 274.924C817.787 271.918 813.278 268.913 808.77 265.541C804.647 262.169 800.89 258.412 797.519 254.655C794.147 250.532 791.507 245.658 788.521 240.764C788.155 241.882 787.77 242.267 787.77 242.633L787.75 242.652ZM793.376 54.2661C795.996 47.1376 799.002 40.375 807.267 37.7548V36.252C803.51 34.3832 800.139 36.2521 797.519 38.8723C790.39 44.8834 789.253 53.1294 788.521 62.8974C792.644 60.2772 792.278 56.8863 793.396 54.2661H793.376ZM825.647 201.365C826.013 209.996 826.765 218.993 827.15 227.625C827.902 235.139 827.902 235.89 835.415 235.89C844.413 235.89 853.796 235.524 862.427 234.387C880.807 232.133 898.07 226.122 912.346 213.753C916.854 209.996 920.226 205.488 922.095 199.862C928.106 183.717 913.83 167.205 901.075 168.708C894.698 169.46 887.936 169.826 881.192 170.577C863.564 172.831 847.418 180.711 830.156 185.586C827.15 186.337 825.647 188.206 826.033 191.211V201.345H825.667L825.647 201.365ZM838.787 41.8778C837.67 38.8723 838.036 35.1153 838.036 31.7437C833.527 35.1153 832.41 39.6237 834.664 44.132C836.918 48.6403 840.29 50.1431 846.667 48.6403C843.661 46.0201 840.29 44.5173 838.787 41.8778ZM904.466 71.1434C905.969 80.8922 903.715 89.9088 898.089 97.7888C896.971 99.2916 896.22 101.16 895.083 103.049C913.849 91.4116 912.712 64.7663 899.592 57.2716C901.46 62.146 903.715 66.6544 904.466 71.1627V71.1434ZM916.103 165.337C917.22 165.703 917.972 166.839 918.723 167.205C925.852 172.08 929.223 178.842 930.36 187.088C931.111 193.851 929.994 199.843 927.74 205.854C926.988 207.723 926.622 209.225 926.237 211.113C926.988 211.113 927.354 211.113 928.106 211.48C934.868 202.097 937.489 191.597 933.732 179.96C931.111 171.328 925.466 166.069 916.103 163.815V165.317V165.337Z" fill="#FDF2DD"/>
<path d="M999.757 234.773C991.126 234.773 983.246 229.514 982.861 219.38C982.495 212.617 986.618 206.991 992.995 204.371C999.372 201.751 1006.13 199.863 1013.26 198.745C1024.51 196.491 1036.15 194.622 1047.79 193.486C1057.54 192.734 1066.92 193.12 1076.3 194.237C1084.93 195.354 1091.31 205.122 1090.95 213.754C1090.19 223.137 1081.95 231.383 1072.93 232.134C1056.05 232.885 1038.79 233.637 1021.89 234.754V234.003C1014.38 234.369 1007.25 235.12 999.757 234.754V234.773ZM1078.19 82.049C1083.82 85.806 1086.82 91.4318 1086.46 97.8089C1086.09 104.937 1081.58 110.563 1074.82 112.817C1068.44 114.686 1062.06 115.438 1055.3 116.574C1047.42 118.077 1039.54 119.58 1031.66 119.946C1023.03 120.312 1014.4 121.815 1005.77 122.951C995.268 124.454 987.754 117.692 986.252 107.192C985.5 102.317 988.506 94.052 994.517 91.0464C1002.4 86.5381 1011.03 84.2839 1020.04 83.1665C1029.79 81.6637 1039.93 80.1609 1049.7 79.0435C1053.82 78.2921 1058.33 78.2921 1062.45 77.926C1068.08 77.926 1073.34 78.6774 1078.21 82.049H1078.19ZM995.634 151.851C1004.63 148.479 1014.01 146.591 1023.78 146.225C1033.17 145.474 1042.91 144.356 1052.3 142.854C1062.05 140.985 1074.43 150.368 1074.07 160.482C1073.7 169.114 1069.19 174.739 1058.67 176.628C1051.55 178.13 1044.03 178.496 1036.9 179.248C1029.77 179.999 1023.01 180.751 1016.27 181.117C1011.39 181.117 1006.89 180.751 1002.01 179.999C999.006 179.633 995.634 178.882 992.629 177.379C988.12 175.125 986.252 170.616 986.252 167.63C986.252 159.365 990.009 154.124 995.634 151.87V151.851ZM1002.4 226.913C997.889 223.541 994.883 219.399 994.132 213.773C993.766 213.022 993.38 212.27 992.629 211.153C992.263 211.904 991.126 212.656 990.76 213.773C989.257 219.399 991.126 223.907 994.883 228.03C997.503 230.284 1000.89 229.899 1005.02 229.148C1003.51 228.03 1003.15 227.279 1002.4 226.893V226.913ZM994.132 100.834C992.263 102.703 992.263 106.459 994.498 110.582C997.118 116.208 1000.12 117.711 1005 116.96C1001.24 111.334 997.484 106.074 994.112 100.814L994.132 100.834ZM994.498 169.499C996.367 173.622 1000.12 175.876 1004.63 175.125C999.757 170.25 996 164.991 996.752 157.496C993.38 160.502 992.629 165.376 994.498 169.499ZM1056.79 171.002C1061.29 171.368 1065.05 168.748 1066.53 164.239C1068.4 159.365 1067.65 153.739 1063.91 150.734C1064.28 158.999 1061.66 165.376 1056.79 171.002ZM1069.54 108.328C1075.55 107.211 1081.18 97.8282 1078.92 92.1831C1078.56 91.8171 1077.81 90.6804 1077.05 91.0657C1076.69 91.0657 1075.55 91.8171 1075.55 92.5685C1074.8 98.1942 1072.18 103.069 1068.04 106.826C1067.67 106.826 1068.04 107.577 1067.67 107.943C1068.42 108.309 1068.79 108.309 1069.54 108.309V108.328ZM1082.29 206.278C1081.93 205.161 1080.79 204.41 1079.67 203.273C1079.31 204.39 1078.56 205.527 1078.56 206.645C1078.56 212.27 1077.05 217.53 1072.55 221.287C1071.79 222.038 1071.43 223.541 1071.04 224.293C1072.16 224.659 1073.3 225.044 1074.41 225.044C1080.04 223.175 1083.41 218.281 1083.41 210.035C1083.05 209.284 1083.05 207.781 1082.29 206.278Z" fill="#FDF2DD"/>
<path d="M1156.99 362.721C1162.25 365.727 1164.12 371.353 1163.37 377.364C1162.61 384.126 1157.35 389.367 1151.73 390.503C1146.47 391.621 1141.23 392.372 1135.58 392.758C1129.57 393.124 1123.95 390.889 1118.69 387.132C1108.55 379.618 1103.68 369.869 1102.93 357.481C1102.56 339.852 1101.06 279.818 1101.06 261.804C1101.06 247.547 1102.18 154.105 1103.31 139.848C1103.68 130.851 1104.82 121.834 1105.18 112.451C1105.93 102.317 1105.93 92.1832 1106.68 82.0491C1107.05 76.4233 1108.19 70.7976 1109.3 65.5379C1110.81 57.6579 1118.69 52.0321 1126.57 52.3982C1134.83 52.3982 1141.96 58.7754 1143.08 67.4067C1144.2 75.2866 1144.95 83.5519 1145.33 91.7979C1145.7 97.4236 1146.08 102.683 1146.08 107.943C1146.08 122.586 1145.72 137.209 1145.33 151.466C1144.97 170.597 1144.58 310.933 1143.83 329.699C1143.83 337.964 1143.08 346.595 1142.71 354.841V357.847C1147.97 359.716 1152.85 360.467 1156.97 362.721H1156.99ZM1139.36 384.858C1138.99 384.858 1138.61 384.492 1138.24 384.107C1125.85 378.847 1118.73 369.098 1114.6 356.344C1114.24 355.593 1113.1 355.227 1112.35 354.475C1111.98 355.593 1111.23 356.344 1111.23 357.095C1112.35 368.732 1118.74 381.487 1132.25 385.995C1134.12 386.746 1136.76 386.361 1139.01 386.361C1139.01 385.995 1139.38 385.61 1139.38 384.858H1139.36ZM1119.48 62.8984C1114.22 68.1581 1111.96 78.6582 1115.72 83.5326C1117.59 78.6582 1119.09 74.1499 1120.98 69.6416C1123.23 64.7672 1127.74 62.8791 1132.98 61.3763C1129.61 58.3708 1123.6 59.1222 1119.48 62.8791V62.8984ZM1217.43 281.976C1222.69 284.982 1224.56 290.607 1223.8 296.618C1223.05 303.381 1217.79 308.621 1212.17 309.758C1206.91 310.876 1201.67 311.627 1196.02 312.012C1190.01 312.378 1184.39 310.143 1179.13 306.386C1168.99 298.873 1164.12 289.124 1163.37 276.736C1163 259.107 1161.5 201 1161.5 182.986C1161.5 168.728 1162.61 154.086 1163.75 139.829C1164.12 130.832 1165.25 121.815 1165.62 112.432C1166.37 102.298 1166.37 92.164 1167.12 82.0299C1167.49 76.4041 1168.63 70.7783 1169.74 65.5186C1171.25 57.6386 1179.13 52.0129 1187.01 52.3789C1195.27 52.3789 1202.4 58.7561 1203.52 67.3874C1204.63 75.2674 1205.39 83.5326 1205.77 91.7786C1206.14 97.4044 1206.52 102.664 1206.52 107.924C1206.52 122.566 1206.16 137.189 1205.77 151.447C1205.4 170.578 1205.02 230.188 1204.27 248.953C1204.27 257.219 1203.52 265.85 1203.15 274.096V277.102C1208.41 278.97 1213.28 279.722 1217.41 281.976H1217.43ZM1199.8 304.113C1199.43 304.113 1199.05 303.747 1198.68 303.362C1186.29 298.102 1179.16 288.353 1175.04 275.599C1174.67 274.847 1173.54 274.481 1172.79 273.73C1172.42 274.847 1171.67 275.599 1171.67 276.35C1172.79 287.987 1179.18 300.741 1192.69 305.25C1194.56 306.001 1197.2 305.616 1199.45 305.616C1199.45 305.25 1199.82 304.864 1199.82 304.113H1199.8ZM1179.92 62.8791C1174.66 68.1388 1172.4 78.639 1176.16 83.5133C1178.03 78.639 1179.53 74.1306 1181.42 69.6223C1183.67 64.7479 1188.18 62.8598 1193.42 61.357C1190.05 58.3515 1184.04 59.1029 1179.92 62.8598V62.8791Z" fill="#FDF2DD"/>
<path d="M1287.56 297.079C1281.93 291.453 1282.68 280.182 1290.56 275.308C1299.95 269.682 1304.46 261.051 1307.08 250.916C1310.08 238.914 1312.34 226.525 1314.59 214.137C1314.59 213.771 1314.59 213.386 1314.22 212.634C1312.72 214.503 1311.22 216.391 1309.72 217.894C1304.09 224.271 1298.08 230.648 1289.45 233.654C1276.69 238.162 1265.06 234.405 1255.31 226.14C1244.06 216.391 1238.8 203.618 1237.29 189.36C1236.18 179.226 1235.04 169.092 1235.79 158.958C1236.91 145.067 1237.29 131.195 1242.92 118.422C1245.92 110.542 1251.18 105.282 1259.43 104.165C1266.56 103.413 1274.82 108.288 1277.81 116.919C1278.93 120.291 1279.68 124.048 1280.06 127.804C1281.18 137.553 1282.32 147.321 1283.07 157.07C1283.44 166.067 1284.57 175.084 1287.19 183.715C1287.56 184.833 1287.94 185.97 1288.7 188.224C1291.32 184.467 1293.2 181.461 1295.07 178.09C1307.08 156.704 1313.84 133.064 1321.72 109.79C1322.84 105.667 1323.97 101.525 1325.84 98.5389C1329.6 92.5278 1335.59 91.4103 1341.99 92.5278C1348 94.0305 1352.49 98.1535 1353.99 104.165C1356.99 115.802 1359.25 127.438 1359.25 139.441C1359.25 145.819 1360 152.581 1360 158.958C1360 189.727 1355.13 220.129 1344.99 249.394C1339.73 264.403 1331.85 278.294 1321.35 290.297C1317.23 294.805 1310.47 297.425 1305.21 301.182C1304.09 301.548 1302.95 302.3 1302.2 302.685H1295.44C1292.82 300.816 1289.81 299.314 1287.56 297.059V297.079ZM1252.28 125.204C1253.78 121.081 1255.65 117.324 1259.8 115.069C1260.91 114.703 1261.66 113.201 1262.8 112.064C1260.93 112.064 1259.43 111.312 1257.93 111.698C1250.8 113.952 1245.54 124.452 1247.79 131.581C1247.79 131.947 1248.54 132.332 1249.66 134.201C1250.78 130.444 1251.53 127.824 1252.28 125.204ZM1281.55 226.14C1280.43 225.022 1279.68 224.271 1278.54 223.52C1276.67 222.768 1274.79 222.017 1273.28 220.899C1263.9 216.025 1257.89 208.145 1252.65 199.129C1252.28 198.377 1251.15 198.011 1250.03 197.26C1250.03 198.377 1249.28 199.514 1249.66 200.265C1252.67 205.891 1255.29 211.902 1259.04 216.776C1263.55 222.788 1270.3 226.159 1278.18 227.662C1279.29 227.296 1280.43 226.545 1281.55 226.159V226.14ZM1307.44 293.688C1305.94 292.936 1304.44 291.819 1302.93 291.434C1299.18 290.682 1296.17 288.428 1293.94 285.423C1293.18 285.056 1292.43 284.305 1291.68 283.92C1291.32 285.037 1290.56 285.789 1290.93 286.925C1291.3 291.8 1296.94 296.308 1302.57 297.059C1304.07 295.942 1305.57 294.805 1307.44 293.688ZM1328.08 116.572C1329.19 115.821 1329.94 115.455 1330.7 114.703C1331.06 114.703 1331.45 113.952 1331.45 113.586C1333.32 107.96 1336.71 103.837 1341.95 100.832C1342.31 100.466 1343.07 99.3288 1343.07 98.9627C1342.7 98.2113 1341.95 97.46 1341.2 97.46C1339.69 97.46 1338.58 97.826 1337.44 98.5774C1331.06 101.583 1328.06 106.843 1326.94 113.971C1327.31 114.723 1327.69 115.474 1328.06 116.591L1328.08 116.572Z" fill="#FDF2DD"/>
<path d="M344.027 223.136C342.158 231.767 334.278 237.393 325.262 236.276C318.133 235.91 311.371 228.01 310.253 220.516C309.502 214.89 308.384 209.264 306.882 204.005C306.882 202.887 305.013 201.75 303.876 201.75C292.239 202.502 280.602 203.253 269.717 206.625C263.706 208.494 260.334 212.636 258.831 219.013C257.714 224.639 255.826 230.265 253.205 235.524C250.585 240.784 244.94 242.653 238.948 242.287C232.937 241.535 228.063 238.164 225.443 231.787C222.822 225.41 223.94 219.032 225.443 212.655C231.068 193.138 235.943 172.87 242.32 153.353C248.331 134.222 256.211 115.822 267.463 99.3112C274.225 88.8111 283.608 82.4146 295.977 81.6825C303.491 81.3164 310.619 84.3027 316.611 89.5625C324.125 95.9396 329.365 104.205 332.756 113.954C337.265 127.459 340.636 141.35 341.754 155.241C342.871 165.376 344.759 175.124 346.262 184.892C346.628 189.401 346.628 193.89 347.013 198.398H347.379C346.262 206.663 345.511 214.909 344.008 223.175L344.027 223.136ZM235.943 209.996C230.683 213.368 228.814 221.999 231.435 228.762C232.937 233.636 236.694 236.642 241.183 236.276C234.421 228.762 232.918 220.131 235.924 210.016L235.943 209.996ZM268.965 114.3C272.722 110.177 275.728 105.669 279.851 101.912C283.974 97.7892 288.848 94.7836 294.108 91.0267C288.097 89.5239 283.974 92.5295 280.217 95.535C274.206 100.043 268.965 105.669 267.829 113.549C268.195 113.915 268.58 113.915 268.946 114.3H268.965ZM276.479 169.094C283.993 168.728 291.488 167.976 298.616 166.84C299.368 166.84 300.119 165.337 300.119 164.586C299.002 156.706 297.865 148.826 296.747 140.946C295.996 137.574 294.879 134.569 294.127 131.197C286.247 143.585 279.87 155.588 275.747 168.728C276.113 169.094 276.498 169.479 276.498 169.094H276.479ZM317.016 220.516C318.884 225.39 321.139 229.147 326.398 230.65C327.516 231.016 328.652 230.284 329.77 230.284C329.77 229.918 330.136 229.532 330.136 229.166C320.753 223.907 319.251 214.909 316.996 205.893C314.742 211.152 315.128 216.027 316.996 220.535L317.016 220.516Z" fill="#FDF2DD"/>
<path d="M359.788 163.854C360.154 147.343 360.154 130.446 360.539 113.935C360.539 112.818 360.539 111.315 360.173 110.178C356.05 100.429 363.545 89.91 371.059 85.787C379.324 81.2787 388.321 79.4099 397.704 78.2731C413.849 76.7704 428.858 80.5273 441.612 91.0275C454.752 101.528 463.383 114.667 466.003 131.564C468.257 143.567 467.872 155.204 463.749 166.455C457.738 183.718 446.486 196.858 430.341 205.489C422.827 209.612 415.333 213.369 406.701 214.486C402.578 214.852 403.696 217.858 403.696 220.112C403.696 225.372 404.062 230.612 403.696 235.872C402.193 245.255 393.947 252.768 385.316 253.501C371.059 254.618 363.545 245.621 361.291 237.355C360.925 235.101 360.539 232.847 360.539 230.593V185.933H359.788V163.796V163.854ZM366.55 109.061C367.302 110.93 368.053 113.184 368.805 115.072C369.556 113.203 371.059 111.315 371.425 109.446C371.791 100.815 375.548 94.4376 382.31 89.5632C383.062 89.1972 383.062 88.0605 383.428 87.6944C382.676 87.3283 381.925 86.5769 381.174 86.5769C379.671 86.943 378.553 87.3283 377.417 88.0797C369.903 92.588 367.282 99.7166 366.531 107.963V109.08L366.55 109.061ZM367.668 211.885C365.799 222.019 365.799 232.153 372.542 240.785C374.411 243.79 378.168 245.293 381.54 247.162C382.291 247.528 384.16 246.411 385.663 246.045C384.911 245.293 384.16 243.79 383.042 243.424C378.919 240.804 375.162 237.799 373.66 232.924C372.157 226.913 371.039 220.921 369.903 215.295C369.537 213.793 369.151 212.675 368.785 211.538C368.419 211.538 368.034 211.905 367.668 211.905V211.885ZM424.33 140.581C423.964 131.583 415.333 117.692 399.939 117.307C401.056 135.321 402.559 153.335 403.696 171.715C414.196 169.846 425.082 158.209 424.33 140.561V140.581ZM433.713 153.335C438.587 142.083 437.084 131.198 429.59 121.43C428.838 120.678 427.336 120.312 425.833 119.927L425.081 120.678C431.844 132.315 433.713 144.318 428.087 157.073C431.844 157.439 432.961 155.204 433.713 153.316V153.335Z" fill="#FDF2DD"/>
<path d="M479.855 163.854C480.221 147.343 480.221 130.446 480.607 113.935C480.607 112.818 480.607 111.315 480.241 110.178C476.118 100.429 483.612 89.91 491.126 85.787C499.391 81.2787 508.389 79.4099 517.771 78.2731C533.917 76.7704 548.925 80.5273 561.679 91.0275C574.819 101.528 583.45 114.667 586.071 131.564C588.325 143.567 587.939 155.204 583.816 166.455C577.805 183.718 566.554 196.858 550.409 205.489C542.895 209.612 535.4 213.369 526.769 214.486C522.646 214.852 523.763 217.858 523.763 220.112C523.763 225.372 524.129 230.612 523.763 235.872C522.26 245.255 514.014 252.768 505.383 253.501C491.126 254.618 483.612 245.621 481.358 237.355C480.992 235.101 480.607 232.847 480.607 230.593V185.933H479.855V163.796V163.854ZM486.618 109.061C487.369 110.93 488.121 113.184 488.872 115.072C489.623 113.203 491.126 111.315 491.492 109.446C491.858 100.815 495.615 94.4376 502.378 89.5632C503.129 89.1972 503.129 88.0605 503.495 87.6944C502.744 87.3283 501.992 86.5769 501.241 86.5769C499.738 86.943 498.621 87.3283 497.484 88.0797C489.97 92.588 487.35 99.7166 486.598 107.963V109.08L486.618 109.061ZM487.735 211.885C485.866 222.019 485.866 232.153 492.61 240.785C494.478 243.79 498.235 245.293 501.607 247.162C502.358 247.528 504.227 246.411 505.73 246.045C504.979 245.293 504.227 243.79 503.11 243.424C498.987 240.804 495.23 237.799 493.727 232.924C492.224 226.913 491.107 220.921 489.97 215.295C489.604 213.793 489.219 212.675 488.853 211.538C488.487 211.538 488.101 211.905 487.735 211.905V211.885ZM544.398 140.581C544.031 131.583 535.4 117.692 520.006 117.307C521.124 135.321 522.627 153.335 523.763 171.715C534.263 169.846 545.149 158.209 544.398 140.561V140.581ZM553.78 153.335C558.655 142.083 557.152 131.198 549.657 121.43C548.906 120.678 547.403 120.312 545.9 119.927L545.149 120.678C551.911 132.315 553.78 144.318 548.154 157.073C551.911 157.439 553.029 155.204 553.78 153.316V153.335Z" fill="#FDF2DD"/>
<path d="M650.959 297.079C645.334 291.453 646.085 280.182 653.965 275.308C663.348 269.682 667.856 261.051 670.476 250.916C673.482 238.914 675.736 226.525 677.99 214.137C677.99 213.771 677.99 213.386 677.624 212.634C676.121 214.503 674.618 216.391 673.116 217.894C667.49 224.271 661.479 230.648 652.847 233.654C640.093 238.162 628.456 234.405 618.688 226.14C607.437 216.391 602.177 203.618 600.674 189.36C599.557 179.226 598.42 169.092 599.171 158.958C600.289 145.067 600.674 131.195 606.3 118.422C609.305 110.542 614.565 105.282 622.811 104.165C629.94 103.413 638.205 108.288 641.191 116.919C642.309 120.291 643.06 124.048 643.445 127.804C644.563 137.553 645.7 147.321 646.451 157.07C646.817 166.067 647.954 175.084 650.574 183.715C650.94 184.833 651.325 185.97 652.077 188.224C654.697 184.467 656.585 181.461 658.454 178.09C670.457 156.704 677.219 133.064 685.099 109.79C686.217 105.667 687.353 101.525 689.222 98.5389C692.979 92.5278 698.971 91.4103 705.367 92.5278C711.379 94.0305 715.868 98.1535 717.37 104.165C720.376 115.802 722.63 127.438 722.63 139.441C722.63 145.819 723.381 152.581 723.381 158.958C723.381 189.727 718.507 220.129 708.373 249.394C703.113 264.403 695.233 278.294 684.733 290.297C680.61 294.805 673.848 297.425 668.588 301.182C667.471 301.548 666.334 302.3 665.582 302.685H658.82C656.2 300.816 653.194 299.314 650.94 297.059L650.959 297.079ZM615.683 125.204C617.185 121.081 619.054 117.324 623.197 115.069C624.314 114.703 625.065 113.201 626.202 112.064C624.333 112.064 622.83 111.312 621.328 111.698C614.199 113.952 608.939 124.452 611.194 131.581C611.194 131.947 611.945 132.332 613.062 134.201C614.18 130.444 614.931 127.824 615.683 125.204ZM644.948 226.14C643.831 225.022 643.079 224.271 641.943 223.52C640.074 222.768 638.186 222.017 636.683 220.899C627.3 216.025 621.289 208.145 616.049 199.129C615.683 198.377 614.546 198.011 613.428 197.26C613.428 198.377 612.677 199.514 613.062 200.265C616.068 205.891 618.688 211.902 622.445 216.776C626.953 222.788 633.697 226.159 641.577 227.662C642.694 227.296 643.831 226.545 644.948 226.159V226.14ZM670.842 293.688C669.339 292.936 667.837 291.819 666.334 291.434C662.577 290.682 659.571 288.428 657.336 285.423C656.585 285.056 655.834 284.305 655.082 283.92C654.716 285.037 653.965 285.789 654.331 286.925C654.697 291.8 660.342 296.308 665.968 297.059C667.471 295.942 668.973 294.805 670.842 293.688ZM691.476 116.572C692.594 115.821 693.345 115.455 694.097 114.703C694.463 114.703 694.848 113.952 694.848 113.586C696.717 107.96 700.108 103.837 705.348 100.832C705.714 100.466 706.466 99.3288 706.466 98.9627C706.1 98.2113 705.348 97.46 704.597 97.46C703.094 97.46 701.977 97.826 700.84 98.5774C694.463 101.583 691.457 106.843 690.34 113.971C690.706 114.723 691.091 115.474 691.457 116.591L691.476 116.572Z" fill="#FDF2DD"/>
<path d="M212.13 107.808C212.072 100.025 211.956 92.2219 211.783 84.4383C211.629 77.541 211.398 70.451 208.623 64.1509C205.849 57.8315 199.915 52.4176 193.017 52.3791C186.178 52.3406 180.205 57.6003 177.315 63.804C174.425 70.0078 173.982 77.0208 173.597 83.8603C171.747 116.228 169.879 148.595 168.029 180.963C153.078 183.082 138.128 185.201 123.158 187.321C123.948 152.371 124.718 117.384 123.293 82.4346C122.984 74.7281 122.406 66.5977 118.091 60.2013C115.239 55.9819 110.211 52.9186 105.086 52.7452C102.138 52.6296 99.9995 53.9782 97.3022 54.7489C94.682 55.5003 92.5627 57.1764 91.0021 59.3921C87.7268 64.016 86.7828 70.0849 86.3011 75.5951C78.9221 162.236 79.423 249.339 80.8873 336.288C81.0799 347.597 81.3497 359.234 85.8002 369.638C90.2507 380.042 99.9609 389.02 111.27 389.097C113.332 389.097 115.47 388.808 117.185 387.652C120.846 385.205 121.27 380.08 121.327 375.688C121.963 325.345 122.599 275.002 123.254 224.659C138.359 222.732 153.464 220.786 168.568 218.86C170.668 230.439 169.57 242.326 169.146 254.079C168.723 265.831 169.012 277.988 173.674 288.797C178.317 299.605 188.239 308.872 199.973 309.585C202.15 309.72 204.5 309.508 206.253 308.198C208.989 306.136 209.297 302.206 209.355 298.776C209.895 271.168 210.453 243.559 210.993 215.97C211.706 179.922 212.419 143.875 212.13 107.828V107.808ZM109.267 379.387C107.61 379.252 105.664 379.348 104.334 378.693C94.682 374.532 90.8094 364.764 90.6938 356.152C90.7324 355.593 91.3296 355.092 91.6764 354.283C92.1773 354.88 92.9865 355.227 93.2177 355.805C95.4526 365.438 100.077 373.048 108.862 377.691C109.112 377.98 109.363 378.289 109.633 378.308C109.594 378.867 109.286 379.117 109.267 379.387ZM101.367 69.9693C99.5178 74.4198 98.0343 78.8703 96.1655 83.7062C92.4663 78.8896 94.682 68.5051 99.8839 63.3031C103.968 59.604 109.902 58.8526 113.235 61.8196C108.034 63.3031 103.583 65.1527 101.367 69.9886V69.9693ZM186.274 63.2838C190.359 59.5847 196.293 58.8333 199.626 61.8004C194.424 63.2839 189.973 65.1334 187.758 69.9693C185.908 74.4198 184.425 78.8703 182.575 83.7062C178.857 78.8896 181.092 68.5051 186.274 63.3031V63.2838ZM194.077 301.32C182.691 297.524 177.315 286.774 176.371 276.967C176.371 276.331 177.007 275.695 177.315 274.751C177.951 275.387 178.895 275.695 179.223 276.331C182.71 287.082 188.721 295.309 199.144 299.74C199.452 300.048 199.78 300.376 200.088 300.376C200.088 301.011 199.78 301.32 199.78 301.647C197.873 301.647 195.676 301.955 194.096 301.339L194.077 301.32ZM199.838 309.566C200.551 309.373 201.34 309.354 202.227 309.566C201.418 309.623 200.628 309.623 199.838 309.566Z" fill="#FDF2DD"/>
</svg>
