<svg width="395" height="369" viewBox="0 0 395 369" fill="none" xmlns="http://www.w3.org/2000/svg">
<rect y="0.796387" width="394.667" height="368" rx="28" fill="#F9DB60"/>
<g clip-path="url(#clip0_426_326)">
<path d="M87.0217 74.3371C90.5079 74.3371 90.5079 71.5482 93.9942 71.5482C97.48 71.5482 97.48 74.3371 100.966 74.3371C102.612 74.3371 103.481 73.7155 104.307 73.0594C105.747 71.916 107.897 72.9074 107.935 74.7457C107.935 74.7902 107.936 74.8347 107.937 74.8793C108.021 82.5771 101.691 88.9787 93.9929 88.9785C86.2918 88.9783 80.049 82.7354 80.049 75.0343C80.049 74.9511 80.0498 74.8682 80.0512 74.7854C80.0837 72.9288 82.2256 71.905 83.6798 73.0597C84.5061 73.7157 85.3754 74.3371 87.0217 74.3371Z" fill="#49B240"/>
<path d="M63.9344 37.6373C52.0425 37.5734 42.3125 47.4431 42.3125 59.3352C42.3125 75.7312 55.6041 89.0227 72.0001 89.0227C88.396 89.0227 101.688 75.7312 101.688 59.3352V59.2841C101.688 52.6455 96.2557 47.1278 89.6176 47.195C89.5543 47.1956 89.491 47.1967 89.4279 47.1984C85.2679 47.3055 81.2116 45.8339 78.1023 43.0681C74.331 39.7137 69.3716 37.6666 63.9344 37.6373Z" fill="#E86E35"/>
<path d="M64.1874 59.3352C64.1874 51.452 68.4638 44.4589 74.8104 40.6577C71.6248 38.7586 67.9074 37.6587 63.9343 37.6373C52.0424 37.5734 42.3124 47.4431 42.3124 59.3352C42.3124 75.7312 55.604 89.0227 71.9999 89.0227C75.8626 89.0227 79.5526 88.2845 82.9375 86.9424C71.9545 82.5873 64.1874 71.8685 64.1874 59.3352Z" fill="#D96330"/>
<path d="M52.3688 46.9928C51.675 46.2184 51.1597 45.3128 50.8486 44.3464C49.4875 42.8041 47.5061 41.9727 46.4714 41.9727C43.5483 41.9727 41.1788 44.3423 41.1788 47.2655C41.1788 48.3002 42.0102 50.3078 43.5525 51.6425C44.5189 51.9536 45.4244 52.4688 46.1989 53.1627L55.1994 61.2258L60.4319 55.9933L52.3688 46.9928Z" fill="#F5F5FC"/>
<path d="M80.1395 58.468C78.5029 56.8197 76.5952 55.6063 74.5596 54.8261C69.7185 55.5558 67.4913 56.8197 65.8548 58.468C59.6569 64.71 59.7407 74.8926 66.0357 81.0363C67.6312 82.5935 70.6309 83.7049 74.5596 84.4985C76.5206 83.7468 78.3629 82.5935 79.9585 81.0363C86.2535 74.8924 86.3373 64.7099 80.1395 58.468Z" fill="#FF915E"/>
<path d="M69.1607 81.0363C62.8655 74.8924 62.7819 64.7099 68.9798 58.468C70.6163 56.8197 72.524 55.6063 74.5596 54.8261C71.9032 53.808 69.0285 53.5284 66.2524 53.9884C65.2704 54.1512 64.2701 53.8337 63.5662 53.1298C62.0149 51.5786 58.2423 52.8361 55.1396 55.9387C52.0371 59.0413 50.7794 62.8139 52.3307 64.3653C53.033 65.0677 53.3529 66.0656 53.1902 67.0455C52.3783 71.9332 53.8572 77.1272 57.6279 80.8979C62.2055 85.4755 68.8812 86.6751 74.5595 84.4986C72.5985 83.7468 70.7562 82.5935 69.1607 81.0363Z" fill="#F77F43"/>
<path d="M74.5371 70.9232C76.6945 70.9232 78.4434 69.1743 78.4434 67.0169C78.4434 64.8595 76.6945 63.1107 74.5371 63.1107C72.3798 63.1107 70.6309 64.8595 70.6309 67.0169C70.6309 69.1743 72.3798 70.9232 74.5371 70.9232Z" fill="#E86E35"/>
<path d="M63.113 66.4549C64.8389 66.4549 66.238 65.0558 66.238 63.3299C66.238 61.604 64.8389 60.2049 63.113 60.2049C61.3872 60.2049 59.988 61.604 59.988 63.3299C59.988 65.0558 61.3872 66.4549 63.113 66.4549Z" fill="#E86E35"/>
<path d="M42.7413 48.828C42.7413 45.9049 45.1109 43.5353 48.0339 43.5353C49.0686 43.5353 50.0331 43.8333 50.8486 44.3466C50.476 43.1888 50.3974 41.9433 50.6699 40.7278C51.0867 38.8683 50.5372 36.8356 49.0213 35.432C46.9228 33.489 43.6355 33.4751 41.5217 35.4014C40.6903 36.1591 40.1445 37.1042 39.8841 38.1081C39.5573 39.3677 38.5736 40.3514 37.3141 40.6781C36.3101 40.9386 35.365 41.4844 34.6073 42.3159C32.6812 44.4295 32.6951 47.7169 34.638 49.8153C36.0416 51.3313 38.0741 51.8808 39.9336 51.4639C41.1492 51.1914 42.3945 51.27 43.5523 51.6427C43.0392 50.827 42.7413 49.8625 42.7413 48.828Z" fill="#EBEBF5"/>
<path d="M43.035 74.3371C46.5212 74.3371 46.5212 71.5482 50.0075 71.5482C53.4933 71.5482 53.4933 74.3371 56.9791 74.3371C58.6253 74.3371 59.4947 73.7155 60.3208 73.0594C61.7606 71.916 63.9105 72.9074 63.9478 74.7457C63.9488 74.7902 63.9494 74.8347 63.9499 74.8793C64.0339 82.5771 57.7045 88.9787 50.0063 88.9785C42.3051 88.9783 36.0623 82.7354 36.0623 75.0343C36.0623 74.9511 36.0631 74.8682 36.0645 74.7854C36.097 72.9288 38.2389 71.905 39.6931 73.0597C40.5194 73.7157 41.3887 74.3371 43.035 74.3371Z" fill="#6DC267"/>
<path d="M44.9013 75.0342C44.9013 74.9511 44.902 74.8682 44.9035 74.7853C44.9091 74.4646 44.9789 74.1694 45.0961 73.9052C44.5531 74.1642 43.9019 74.3369 43.035 74.3369C41.3888 74.3369 40.5194 73.7155 39.6933 73.0596C38.2391 71.905 36.0972 72.9286 36.0647 74.7852C36.0633 74.868 36.0625 74.951 36.0625 75.0341C36.0625 82.7352 42.3055 88.9782 50.0064 88.9783C51.541 88.9783 53.0194 88.7204 54.4052 88.2521C48.8819 86.3972 44.9013 81.1824 44.9013 75.0342Z" fill="#49B240"/>
<path d="M97.3109 80.3719C97.3109 78.0588 96.0537 76.0407 94.1858 74.9602C90.812 75.3879 87.9359 78.059 87.9359 80.3719C87.9359 82.6849 91.1217 85.2618 94.1858 85.7837C96.0537 84.7034 97.3109 82.6851 97.3109 80.3719Z" fill="#FFF04A"/>
<path d="M91.0609 80.372C91.0609 78.059 92.3182 76.041 94.1859 74.9602C93.2663 74.428 92.1996 74.1219 91.0609 74.1219C87.6091 74.1219 84.8109 76.9202 84.8109 80.372C84.8109 83.8237 87.6091 86.622 91.0609 86.622C92.1996 86.622 93.2663 86.3159 94.1859 85.7837C92.3184 84.7031 91.0609 82.6849 91.0609 80.372Z" fill="#FFDA45"/>
<path d="M86.8809 80.3719C86.8809 78.0588 85.6237 76.0407 83.7557 74.9602C80.382 75.3879 77.5059 78.059 77.5059 80.3719C77.5059 82.6849 80.6916 85.2618 83.7557 85.7837C85.6237 84.7034 86.8809 82.6851 86.8809 80.3719Z" fill="#FFF04A"/>
<path d="M80.6309 80.372C80.6309 78.059 81.8882 76.041 83.7559 74.9602C82.8363 74.428 81.7696 74.1219 80.6309 74.1219C77.1791 74.1219 74.3809 76.9202 74.3809 80.372C74.3809 83.8237 77.1791 86.622 80.6309 86.622C81.7696 86.622 82.8363 86.3159 83.7559 85.7837C81.8882 84.7031 80.6309 82.6849 80.6309 80.372Z" fill="#FFDA45"/>
<path d="M106.043 83.4969H55.1443C52.59 83.4969 47.3061 85.4995 47.2361 88.0527C47.1888 89.7785 48.0746 91.3012 49.4257 92.1527C51.2658 93.3127 52.6536 95.0673 53.3414 97.1309L56.035 105.212C57.3111 109.04 64.0187 111.622 68.054 111.622H93.1336C97.1689 111.622 100.751 109.04 102.027 105.212L104.721 97.1309C105.409 95.0673 106.797 93.3126 108.637 92.1527C109.988 91.301 110.874 89.7785 110.826 88.0527C110.756 85.4996 108.597 83.4969 106.043 83.4969Z" fill="#F5F5FC"/>
<path d="M59.16 105.212L56.4664 97.1311C55.7785 95.0673 54.3908 93.3128 52.5506 92.1529C51.1995 91.3012 50.3138 89.7787 50.3611 88.0529C50.4311 85.4996 52.5902 83.4971 55.1442 83.4971H37.9567C35.4025 83.4971 33.2436 85.4996 33.1736 88.0529C33.1262 89.7787 34.012 91.3014 35.3631 92.1529C37.2033 93.3129 38.5911 95.0675 39.2789 97.1311L41.9725 105.212C43.2486 109.04 46.8311 111.622 50.8664 111.622H68.0539C64.0186 111.622 60.4361 109.04 59.16 105.212Z" fill="#EBEBF5"/>
<path d="M107.149 82.4298C108.464 80.1246 109.138 77.5455 109.109 74.8671L109.106 74.7218C109.08 73.429 108.333 72.2824 107.158 71.7294C105.972 71.1719 104.601 71.3299 103.579 72.1416C102.8 72.7599 102.198 73.1651 100.966 73.1651C100.449 73.1651 100.044 73.0922 99.6945 72.9666C101.775 68.7538 102.859 64.1193 102.859 59.3352V59.2841C102.859 55.7124 101.452 52.3522 98.8965 49.8224C96.386 47.337 93.0864 45.9859 89.6062 46.0233C89.5367 46.0239 89.4673 46.0252 89.3978 46.0269C85.5065 46.1277 81.7735 44.7653 78.8812 42.1925C74.7624 38.5289 69.4566 36.4951 63.9408 36.4654C59.6579 36.4426 55.5633 37.615 51.9624 39.8751C52.0667 37.8983 51.2947 35.9395 49.8175 34.572C47.2791 32.2218 43.2886 32.2058 40.7324 34.5353C39.7623 35.4192 39.0767 36.5529 38.7497 37.8139C38.5298 38.6611 37.867 39.324 37.0198 39.5437C35.7587 39.8709 34.625 40.5566 33.7412 41.5264C31.4119 44.0827 31.428 48.0733 33.7781 50.6114C35.402 52.3652 37.8586 53.1297 40.1902 52.6074C40.8466 52.4602 41.5203 52.4375 42.1819 52.5274C41.4911 54.7299 41.1406 57.0146 41.1406 59.3352C41.1406 64.0621 42.2334 68.7538 44.3078 72.9666C43.9564 73.0929 43.5513 73.1652 43.035 73.1652C41.8028 73.1652 41.2003 72.7601 40.4219 72.1419C39.4003 71.331 38.0328 71.1733 36.853 71.7302C35.667 72.2901 34.9161 73.4529 34.893 74.7649C34.8914 74.8546 34.8906 74.9443 34.8906 75.0343C34.8906 77.6615 35.5552 80.1857 36.8234 82.4346C34.1512 82.9527 32.0778 85.2601 32.0022 88.0207C31.9456 90.0816 32.9941 92.0448 34.7383 93.1443C36.3519 94.1615 37.5697 95.709 38.1672 97.5017C38.372 98.1157 39.0359 98.4474 39.6495 98.2429C40.2636 98.0382 40.5953 97.3746 40.3908 96.7606C39.6223 94.4553 38.0588 92.4668 35.9881 91.1617C34.925 90.4915 34.3108 89.3413 34.3452 88.0851C34.3969 86.2015 36.017 84.669 37.9569 84.669H106.043C107.983 84.669 109.603 86.2015 109.655 88.0851C109.689 89.3413 109.075 90.4915 108.012 91.1617C105.941 92.467 104.378 94.4553 103.609 96.7606L100.916 104.841C99.7973 108.196 96.67 110.45 93.1334 110.45H50.8664C47.33 110.45 44.2025 108.196 43.0842 104.841L42.1239 101.96C41.9191 101.346 41.2556 101.014 40.6416 101.219C40.0275 101.424 39.6958 102.087 39.9003 102.701L40.8606 105.582C42.2984 109.896 46.3194 112.794 50.8663 112.794H93.1334C97.6803 112.794 101.701 109.896 103.139 105.582L105.833 97.5017C106.43 95.7089 107.648 94.1615 109.262 93.1443C111.006 92.0449 112.054 90.0816 111.998 88.0207C111.922 85.2507 109.835 82.9374 107.149 82.4298ZM100.966 75.5088C102.942 75.5088 104.06 74.7521 105.036 73.9771C105.517 73.5951 106.018 73.7833 106.16 73.8502C106.337 73.9336 106.751 74.1902 106.763 74.7696L106.765 74.8918C106.794 77.5668 105.992 80.1263 104.442 82.3249H98.2192C98.3917 81.6908 98.4828 81.0338 98.4828 80.3718C98.4828 79.0387 98.1278 77.7877 97.5098 76.7052C97.8821 76.1597 98.2346 75.6041 98.5693 75.0399C99.1856 75.3083 99.9609 75.5088 100.966 75.5088ZM87.7892 82.3251C87.9617 81.691 88.0528 81.0338 88.0528 80.3719C88.0528 79.166 87.7618 78.0273 87.2492 77.0194C88.2084 75.9313 89.5971 75.2938 91.0609 75.2938C93.8609 75.2938 96.139 77.5719 96.139 80.3719C96.139 81.0446 96.0039 81.7098 95.7478 82.3251H87.7892ZM75.9444 82.3251C75.6885 81.7098 75.5527 81.0441 75.5527 80.3719C75.5527 77.5719 77.8309 75.2938 80.6309 75.2938C83.4309 75.2938 85.709 77.5719 85.709 80.3719C85.709 81.0446 85.5737 81.7096 85.3177 82.3251H75.9444ZM77.3234 43.9437C80.6621 46.9136 84.9713 48.4872 89.4576 48.3698C89.5145 48.3684 89.5717 48.3673 89.6295 48.3667C89.6657 48.3664 89.7018 48.3663 89.7381 48.3663C92.5482 48.3663 95.2115 49.4725 97.2476 51.488C99.3551 53.5742 100.516 56.343 100.516 59.2841V59.3352C100.516 64.8736 98.9437 70.1944 95.9593 74.8032C94.6512 73.6511 92.9368 72.9502 91.0609 72.9502C89.0957 72.9502 87.2224 73.7357 85.8442 75.0957C85.6417 74.8955 85.427 74.7079 85.2026 74.5319C86.3757 70.5713 86.0926 66.3566 84.3846 62.588C84.1174 61.9985 83.4227 61.7374 82.8335 62.0044C82.244 62.2714 81.9827 62.966 82.2499 63.5555C83.6531 66.6518 83.9387 70.0968 83.0898 73.3708C82.3198 73.0996 81.4926 72.9504 80.6309 72.9504C76.5385 72.9504 73.209 76.2799 73.209 80.3723C73.209 81.0337 73.3005 81.691 73.4732 82.3254H63.2207C64.4965 80.0462 65.1507 77.5037 65.1218 74.8674L65.1196 74.7221C65.0933 73.4293 64.3466 72.2827 63.1708 71.7297C61.9857 71.1722 60.6143 71.3302 59.5921 72.1419C58.8136 72.7602 58.2111 73.1654 56.9791 73.1654C55.7193 73.1654 55.1172 72.738 54.3571 72.1329C54.0821 70.51 54.0761 68.8646 54.3463 67.2379C54.5707 65.8879 54.1269 64.5044 53.1594 63.5369C52.7516 63.1291 52.73 62.2197 53.1017 61.1046C53.5689 59.7028 54.6138 58.1222 55.9683 56.7677C57.3229 55.4133 58.9036 54.3685 60.3052 53.9011C61.4204 53.5294 62.3297 53.5508 62.7374 53.9588C63.7043 54.9256 65.0897 55.3691 66.4438 55.1447C71.1454 54.3655 75.9545 55.9166 79.3077 59.2939C79.764 59.7533 80.5059 59.7558 80.9651 59.2999C81.4243 58.8439 81.427 58.1019 80.971 57.6425C77.0837 53.7277 71.5096 51.9294 66.0607 52.8327C65.4507 52.9335 64.8282 52.735 64.3947 52.3016C63.3143 51.2211 61.5986 50.9994 59.5639 51.6777C59.2172 51.7933 58.8664 51.9342 58.5143 52.097L53.2414 46.2113C52.3875 45.2581 51.8666 44.0895 51.7224 42.885C55.2858 40.1933 59.4929 38.7836 63.928 38.8095C68.8735 38.8356 73.6307 40.6592 77.3234 43.9437ZM39.6773 50.3203C38.1581 50.6608 36.5566 50.1624 35.4978 49.0189C33.9678 47.3666 33.9572 44.7689 35.4734 43.105C36.0503 42.472 36.7886 42.025 37.6083 41.8123C39.2783 41.3791 40.585 40.0725 41.0183 38.4023C41.2309 37.5826 41.678 36.8444 42.3109 36.2675C43.9747 34.7511 46.5725 34.7619 48.225 36.2917C49.3683 37.3501 49.8671 38.9515 49.5264 40.4711C48.9531 43.0278 49.6894 45.7581 51.4958 47.7747L56.4486 53.3033C55.7111 53.8241 54.9902 54.4308 54.311 55.11C53.6336 55.7874 53.0283 56.5064 52.5085 57.2417L46.9806 52.2897C44.9642 50.4833 42.2338 49.747 39.6773 50.3203ZM44.3975 53.2958C44.7564 53.5052 45.0992 53.7508 45.4169 54.0355L51.301 59.3067C51.1367 59.6613 50.9947 60.0142 50.8783 60.3632C50.2 62.3977 50.4217 64.1133 51.5022 65.1939C51.936 65.6277 52.1349 66.2482 52.0344 66.8535C51.8258 68.1093 51.7589 69.3746 51.831 70.6355C51.3132 70.4765 50.7158 70.3763 50.0077 70.3763C48.2149 70.3763 47.1224 71.0104 46.2758 71.6472C44.4485 67.8288 43.4844 63.5986 43.4844 59.3352C43.4842 57.2771 43.7919 55.2505 44.3975 53.2958ZM37.2363 74.8058C37.2436 74.386 37.4742 74.0285 37.8534 73.8494C38.0325 73.7649 38.4992 73.608 38.9644 73.9772C39.9403 74.7521 41.0584 75.5087 43.0349 75.5087C45.1891 75.5087 46.3336 74.5932 47.2533 73.8574C48.0789 73.1969 48.6755 72.7197 50.0075 72.7197C51.3392 72.7197 51.9358 73.1969 52.7613 73.8574C53.6808 74.593 54.8252 75.5087 56.9793 75.5087C58.9555 75.5087 60.0738 74.7519 61.0497 73.9769C61.5307 73.5949 62.0315 73.7832 62.1735 73.8501C62.3508 73.9335 62.7647 74.1901 62.7765 74.7694L62.7783 74.8916C62.8076 77.5649 62.0043 80.1257 60.4549 82.3248H39.5202C38.0244 80.1799 37.2342 77.6685 37.2342 75.0338C37.2342 74.958 37.235 74.8818 37.2363 74.8058Z" fill="black"/>
<path d="M74.5371 61.9388C71.7371 61.9388 69.459 64.2169 69.459 67.0169C69.459 69.8169 71.7371 72.0951 74.5371 72.0951C77.3371 72.0951 79.6153 69.8169 79.6153 67.0169C79.6153 64.2169 77.3371 61.9388 74.5371 61.9388ZM74.5371 69.7513C73.0295 69.7513 71.8027 68.5246 71.8027 67.0169C71.8027 65.5093 73.0295 64.2825 74.5371 64.2825C76.0448 64.2825 77.2715 65.5093 77.2715 67.0169C77.2715 68.5246 76.0448 69.7513 74.5371 69.7513Z" fill="black"/>
<path d="M63.113 59.033C60.7437 59.033 58.8162 60.9605 58.8162 63.3299C58.8162 65.6993 60.7437 67.6268 63.113 67.6268C65.4824 67.6268 67.4099 65.6993 67.4099 63.3299C67.4099 60.9605 65.4823 59.033 63.113 59.033ZM63.113 65.283C62.036 65.283 61.1599 64.4069 61.1599 63.3299C61.1599 62.2529 62.036 61.3768 63.113 61.3768C64.1901 61.3768 65.0662 62.2529 65.0662 63.3299C65.0662 64.4069 64.1899 65.283 63.113 65.283Z" fill="black"/>
<path d="M59.7537 102.508C62.2492 102.508 64.2723 100.897 64.2723 98.9098C64.2723 96.9224 62.2492 95.3113 59.7537 95.3113C57.2581 95.3113 55.235 96.9224 55.235 98.9098C55.235 100.897 57.2581 102.508 59.7537 102.508Z" fill="#FFA1AC"/>
<path d="M84.2464 102.508C86.742 102.508 88.7651 100.897 88.7651 98.9098C88.7651 96.9224 86.742 95.3113 84.2464 95.3113C81.7507 95.3113 79.7276 96.9224 79.7276 98.9098C79.7276 100.897 81.7507 102.508 84.2464 102.508Z" fill="#FFA1AC"/>
<path d="M64.5379 96.1659C63.8907 96.1659 63.366 95.6412 63.366 94.994C63.366 94.4541 62.9268 94.0151 62.3871 94.0151C61.8474 94.0151 61.4082 94.4543 61.4082 94.994C61.4082 95.6412 60.8835 96.1659 60.2363 96.1659C59.5891 96.1659 59.0645 95.6412 59.0645 94.994C59.0645 93.1618 60.5551 91.6713 62.3871 91.6713C64.2192 91.6713 65.7098 93.162 65.7098 94.994C65.7098 95.6412 65.1851 96.1659 64.5379 96.1659Z" fill="black"/>
<path d="M83.7637 96.1659C83.1165 96.1659 82.5918 95.6412 82.5918 94.994C82.5918 94.4541 82.1526 94.0151 81.6129 94.0151C81.0732 94.0151 80.634 94.4543 80.634 94.994C80.634 95.6412 80.1093 96.1659 79.4621 96.1659C78.8149 96.1659 78.2902 95.6412 78.2902 94.994C78.2902 93.1618 79.7809 91.6713 81.6129 91.6713C83.4449 91.6713 84.9355 93.162 84.9355 94.994C84.9355 95.6412 84.4109 96.1659 83.7637 96.1659Z" fill="black"/>
<path d="M71.9999 99.719C70.7868 99.719 69.6334 99.1937 68.8351 98.2778C68.4099 97.7898 68.4607 97.0496 68.9487 96.6243C69.4368 96.1992 70.1768 96.25 70.6021 96.7379C70.9551 97.1431 71.4648 97.3754 72.0001 97.3754C72.5354 97.3754 73.0449 97.1431 73.3981 96.7379C73.8234 96.25 74.5635 96.1993 75.0515 96.6243C75.5395 97.0496 75.5903 97.7898 75.1651 98.2778C74.3667 99.1937 73.2131 99.719 71.9999 99.719Z" fill="black"/>
</g>
<path d="M36.872 296.796L32.288 280.332H34.736L37.664 291.444C37.712 291.62 37.768 291.876 37.832 292.212C37.912 292.532 37.992 292.868 38.072 293.22C38.152 293.572 38.216 293.884 38.264 294.156H38.432C38.48 293.948 38.52 293.716 38.552 293.46C38.6 293.204 38.648 292.948 38.696 292.692C38.76 292.436 38.816 292.196 38.864 291.972C38.912 291.748 38.944 291.572 38.96 291.444L41.696 280.332H44.648L47.384 291.444C47.432 291.62 47.488 291.876 47.552 292.212C47.632 292.532 47.704 292.868 47.768 293.22C47.848 293.572 47.912 293.884 47.96 294.156H48.128C48.176 293.948 48.224 293.724 48.272 293.484C48.32 293.228 48.376 292.972 48.44 292.716C48.504 292.46 48.56 292.22 48.608 291.996C48.672 291.772 48.72 291.588 48.752 291.444L51.704 280.332H53.864L49.28 296.796H46.544L43.688 285.612C43.64 285.372 43.584 285.092 43.52 284.772C43.456 284.436 43.392 284.092 43.328 283.74C43.264 283.388 43.208 283.084 43.16 282.828H43.016C42.984 283.1 42.936 283.412 42.872 283.764C42.808 284.116 42.736 284.46 42.656 284.796C42.592 285.132 42.536 285.404 42.488 285.612L39.704 296.796H36.872ZM59.7898 297.084C58.5418 297.084 57.4858 296.852 56.6217 296.388C55.7738 295.908 55.1258 295.18 54.6777 294.204C54.2458 293.228 54.0298 291.988 54.0298 290.484C54.0298 288.964 54.2458 287.724 54.6777 286.764C55.1258 285.788 55.7818 285.068 56.6458 284.604C57.5098 284.124 58.5898 283.884 59.8858 283.884C61.0698 283.884 62.0618 284.116 62.8618 284.58C63.6618 285.028 64.2618 285.708 64.6618 286.62C65.0778 287.516 65.2858 288.644 65.2858 290.004V291.012H56.2138C56.2458 292.02 56.3898 292.852 56.6458 293.508C56.9178 294.148 57.3178 294.62 57.8458 294.924C58.3738 295.212 59.0378 295.356 59.8378 295.356C60.3818 295.356 60.8538 295.292 61.2538 295.164C61.6698 295.02 62.0138 294.82 62.2858 294.564C62.5738 294.308 62.7898 294.004 62.9338 293.652C63.0778 293.3 63.1578 292.916 63.1738 292.5H65.2378C65.2218 293.172 65.0938 293.796 64.8538 294.372C64.6138 294.932 64.2618 295.412 63.7978 295.812C63.3338 296.212 62.7658 296.524 62.0938 296.748C61.4218 296.972 60.6538 297.084 59.7898 297.084ZM56.2617 289.428H63.1018C63.1018 288.724 63.0218 288.132 62.8618 287.652C62.7018 287.172 62.4698 286.78 62.1658 286.476C61.8778 286.172 61.5338 285.956 61.1338 285.828C60.7498 285.684 60.3098 285.612 59.8138 285.612C59.0778 285.612 58.4538 285.748 57.9418 286.02C57.4298 286.292 57.0378 286.708 56.7658 287.268C56.4938 287.828 56.3258 288.548 56.2617 289.428ZM76.0818 297.084C75.6178 297.084 75.1538 297.028 74.6898 296.916C74.2258 296.804 73.7938 296.62 73.3938 296.364C72.9938 296.108 72.6738 295.756 72.4338 295.308C72.1938 294.844 72.0738 294.268 72.0738 293.58C72.0738 292.716 72.2818 292.004 72.6978 291.444C73.1138 290.884 73.6898 290.452 74.4258 290.148C75.1778 289.828 76.0658 289.612 77.0898 289.5C78.1138 289.372 79.2258 289.308 80.4258 289.308V287.868C80.4258 287.404 80.3458 287.004 80.1858 286.668C80.0258 286.332 79.7378 286.076 79.3218 285.9C78.9218 285.708 78.3458 285.612 77.5938 285.612C76.8738 285.612 76.2978 285.708 75.8658 285.9C75.4498 286.076 75.1538 286.308 74.9778 286.596C74.8178 286.884 74.7378 287.204 74.7378 287.556V287.916H72.6978C72.6818 287.836 72.6738 287.756 72.6738 287.676C72.6738 287.596 72.6738 287.5 72.6738 287.388C72.6738 286.62 72.8818 285.98 73.2978 285.468C73.7298 284.94 74.3298 284.548 75.0978 284.292C75.8658 284.02 76.7458 283.884 77.7378 283.884C78.7938 283.884 79.6738 284.036 80.3778 284.34C81.0978 284.644 81.6338 285.076 81.9858 285.636C82.3538 286.196 82.5378 286.868 82.5378 287.652V294.492C82.5378 294.796 82.6098 295.012 82.7538 295.14C82.8978 295.252 83.0738 295.308 83.2818 295.308H84.2178V296.7C83.9938 296.796 83.7458 296.876 83.4738 296.94C83.2018 297.02 82.8898 297.06 82.5378 297.06C82.1218 297.06 81.7778 296.972 81.5058 296.796C81.2338 296.636 81.0258 296.412 80.8818 296.124C80.7378 295.82 80.6418 295.484 80.5938 295.116H80.4258C80.1378 295.516 79.7698 295.868 79.3218 296.172C78.8898 296.46 78.4018 296.684 77.8578 296.844C77.3138 297.004 76.7218 297.084 76.0818 297.084ZM76.6098 295.308C77.1218 295.308 77.6018 295.228 78.0498 295.068C78.5138 294.908 78.9218 294.684 79.2738 294.396C79.6258 294.092 79.9058 293.732 80.1138 293.316C80.3218 292.9 80.4258 292.444 80.4258 291.948V290.892C79.1298 290.892 78.0258 290.964 77.1138 291.108C76.2018 291.252 75.4978 291.508 75.0018 291.876C74.5218 292.244 74.2818 292.764 74.2818 293.436C74.2818 293.868 74.3778 294.22 74.5698 294.492C74.7618 294.764 75.0338 294.972 75.3858 295.116C75.7378 295.244 76.1458 295.308 76.6098 295.308ZM85.9919 296.796V284.172H87.6959L87.8879 286.26H88.0559C88.1839 285.86 88.3599 285.484 88.5839 285.132C88.8079 284.764 89.1119 284.468 89.4959 284.244C89.8799 284.004 90.3519 283.884 90.9119 283.884C91.1519 283.884 91.3679 283.908 91.5599 283.956C91.7679 283.988 91.9199 284.028 92.0159 284.076V286.02H91.2239C90.6799 286.02 90.2079 286.116 89.8079 286.308C89.4239 286.484 89.1039 286.74 88.8479 287.076C88.5919 287.412 88.3999 287.812 88.2719 288.276C88.1599 288.74 88.1039 289.236 88.1039 289.764V296.796H85.9919ZM98.7663 297.084C97.5183 297.084 96.4623 296.852 95.5983 296.388C94.7503 295.908 94.1023 295.18 93.6543 294.204C93.2223 293.228 93.0063 291.988 93.0063 290.484C93.0063 288.964 93.2223 287.724 93.6543 286.764C94.1023 285.788 94.7583 285.068 95.6223 284.604C96.4863 284.124 97.5663 283.884 98.8623 283.884C100.046 283.884 101.038 284.116 101.838 284.58C102.638 285.028 103.238 285.708 103.638 286.62C104.054 287.516 104.262 288.644 104.262 290.004V291.012H95.1903C95.2223 292.02 95.3663 292.852 95.6223 293.508C95.8943 294.148 96.2943 294.62 96.8223 294.924C97.3503 295.212 98.0143 295.356 98.8143 295.356C99.3583 295.356 99.8303 295.292 100.23 295.164C100.646 295.02 100.99 294.82 101.262 294.564C101.55 294.308 101.766 294.004 101.91 293.652C102.054 293.3 102.134 292.916 102.15 292.5H104.214C104.198 293.172 104.07 293.796 103.83 294.372C103.59 294.932 103.238 295.412 102.774 295.812C102.31 296.212 101.742 296.524 101.07 296.748C100.398 296.972 99.6303 297.084 98.7663 297.084ZM95.2383 289.428H102.078C102.078 288.724 101.998 288.132 101.838 287.652C101.678 287.172 101.446 286.78 101.142 286.476C100.854 286.172 100.51 285.956 100.11 285.828C99.7263 285.684 99.2863 285.612 98.7903 285.612C98.0543 285.612 97.4303 285.748 96.9183 286.02C96.4063 286.292 96.0143 286.708 95.7423 287.268C95.4703 287.828 95.3023 288.548 95.2383 289.428ZM117.074 297.084C115.794 297.084 114.714 296.852 113.834 296.388C112.97 295.908 112.306 295.18 111.842 294.204C111.394 293.228 111.17 291.988 111.17 290.484C111.17 288.964 111.394 287.724 111.842 286.764C112.306 285.788 112.97 285.068 113.834 284.604C114.714 284.124 115.794 283.884 117.074 283.884C118.354 283.884 119.426 284.124 120.29 284.604C121.17 285.068 121.834 285.788 122.282 286.764C122.73 287.724 122.954 288.964 122.954 290.484C122.954 291.988 122.73 293.228 122.282 294.204C121.834 295.18 121.17 295.908 120.29 296.388C119.426 296.852 118.354 297.084 117.074 297.084ZM117.074 295.308C117.89 295.308 118.57 295.148 119.114 294.828C119.658 294.508 120.066 294.012 120.338 293.34C120.626 292.652 120.77 291.788 120.77 290.748V290.22C120.77 289.164 120.626 288.3 120.338 287.628C120.066 286.956 119.658 286.46 119.114 286.14C118.57 285.82 117.89 285.66 117.074 285.66C116.258 285.66 115.57 285.82 115.01 286.14C114.466 286.46 114.058 286.956 113.786 287.628C113.514 288.3 113.378 289.164 113.378 290.22V290.748C113.378 291.788 113.514 292.652 113.786 293.34C114.058 294.012 114.466 294.508 115.01 294.828C115.57 295.148 116.258 295.308 117.074 295.308ZM125.578 296.796V284.172H127.282L127.474 286.068H127.642C127.978 285.556 128.354 285.14 128.77 284.82C129.202 284.5 129.674 284.268 130.186 284.124C130.714 283.964 131.274 283.884 131.866 283.884C132.666 283.884 133.362 284.02 133.954 284.292C134.562 284.564 135.034 285.004 135.37 285.612C135.722 286.22 135.898 287.044 135.898 288.084V296.796H133.786V288.372C133.786 287.844 133.714 287.412 133.57 287.076C133.442 286.74 133.258 286.476 133.018 286.284C132.794 286.092 132.514 285.956 132.178 285.876C131.858 285.796 131.498 285.756 131.098 285.756C130.506 285.756 129.946 285.9 129.418 286.188C128.89 286.476 128.466 286.892 128.146 287.436C127.842 287.98 127.69 288.628 127.69 289.38V296.796H125.578ZM147.285 297.084C146.821 297.084 146.357 297.028 145.893 296.916C145.429 296.804 144.997 296.62 144.597 296.364C144.197 296.108 143.877 295.756 143.637 295.308C143.397 294.844 143.277 294.268 143.277 293.58C143.277 292.716 143.485 292.004 143.901 291.444C144.317 290.884 144.893 290.452 145.629 290.148C146.381 289.828 147.269 289.612 148.293 289.5C149.317 289.372 150.429 289.308 151.629 289.308V287.868C151.629 287.404 151.549 287.004 151.389 286.668C151.229 286.332 150.941 286.076 150.525 285.9C150.125 285.708 149.549 285.612 148.797 285.612C148.077 285.612 147.501 285.708 147.069 285.9C146.653 286.076 146.357 286.308 146.181 286.596C146.021 286.884 145.941 287.204 145.941 287.556V287.916H143.901C143.885 287.836 143.877 287.756 143.877 287.676C143.877 287.596 143.877 287.5 143.877 287.388C143.877 286.62 144.085 285.98 144.501 285.468C144.933 284.94 145.533 284.548 146.301 284.292C147.069 284.02 147.949 283.884 148.941 283.884C149.997 283.884 150.877 284.036 151.581 284.34C152.301 284.644 152.837 285.076 153.189 285.636C153.557 286.196 153.741 286.868 153.741 287.652V294.492C153.741 294.796 153.813 295.012 153.957 295.14C154.101 295.252 154.277 295.308 154.485 295.308H155.421V296.7C155.197 296.796 154.949 296.876 154.677 296.94C154.405 297.02 154.093 297.06 153.741 297.06C153.325 297.06 152.981 296.972 152.709 296.796C152.437 296.636 152.229 296.412 152.085 296.124C151.941 295.82 151.845 295.484 151.797 295.116H151.629C151.341 295.516 150.973 295.868 150.525 296.172C150.093 296.46 149.605 296.684 149.061 296.844C148.517 297.004 147.925 297.084 147.285 297.084ZM147.813 295.308C148.325 295.308 148.805 295.228 149.253 295.068C149.717 294.908 150.125 294.684 150.477 294.396C150.829 294.092 151.109 293.732 151.317 293.316C151.525 292.9 151.629 292.444 151.629 291.948V290.892C150.333 290.892 149.229 290.964 148.317 291.108C147.405 291.252 146.701 291.508 146.205 291.876C145.725 292.244 145.485 292.764 145.485 293.436C145.485 293.868 145.581 294.22 145.773 294.492C145.965 294.764 146.237 294.972 146.589 295.116C146.941 295.244 147.349 295.308 147.813 295.308ZM162.211 281.796V279.444H164.323V281.796H162.211ZM161.659 301.164C161.483 301.164 161.291 301.148 161.083 301.116C160.875 301.1 160.675 301.068 160.483 301.02C160.291 300.988 160.131 300.948 160.003 300.9V299.436H161.083C161.451 299.436 161.731 299.332 161.923 299.124C162.115 298.932 162.211 298.652 162.211 298.284V284.172H164.323V298.332C164.323 298.812 164.243 299.268 164.083 299.7C163.923 300.132 163.651 300.484 163.267 300.756C162.899 301.028 162.363 301.164 161.659 301.164ZM172.738 297.084C171.458 297.084 170.378 296.852 169.498 296.388C168.634 295.908 167.97 295.18 167.506 294.204C167.058 293.228 166.834 291.988 166.834 290.484C166.834 288.964 167.058 287.724 167.506 286.764C167.97 285.788 168.634 285.068 169.498 284.604C170.378 284.124 171.458 283.884 172.738 283.884C174.018 283.884 175.09 284.124 175.954 284.604C176.834 285.068 177.498 285.788 177.946 286.764C178.394 287.724 178.618 288.964 178.618 290.484C178.618 291.988 178.394 293.228 177.946 294.204C177.498 295.18 176.834 295.908 175.954 296.388C175.09 296.852 174.018 297.084 172.738 297.084ZM172.738 295.308C173.554 295.308 174.234 295.148 174.778 294.828C175.322 294.508 175.73 294.012 176.002 293.34C176.29 292.652 176.434 291.788 176.434 290.748V290.22C176.434 289.164 176.29 288.3 176.002 287.628C175.73 286.956 175.322 286.46 174.778 286.14C174.234 285.82 173.554 285.66 172.738 285.66C171.922 285.66 171.234 285.82 170.674 286.14C170.13 286.46 169.722 286.956 169.45 287.628C169.178 288.3 169.042 289.164 169.042 290.22V290.748C169.042 291.788 169.178 292.652 169.45 293.34C169.722 294.012 170.13 294.508 170.674 294.828C171.234 295.148 171.922 295.308 172.738 295.308ZM185.154 297.084C183.938 297.084 182.962 296.772 182.226 296.148C181.49 295.524 181.122 294.436 181.122 292.884V284.172H183.234V292.596C183.234 293.124 183.298 293.556 183.426 293.892C183.554 294.228 183.738 294.492 183.978 294.684C184.218 294.876 184.498 295.012 184.818 295.092C185.154 295.172 185.514 295.212 185.898 295.212C186.506 295.212 187.066 295.068 187.578 294.78C188.09 294.492 188.506 294.076 188.826 293.532C189.162 292.972 189.33 292.324 189.33 291.588V284.172H191.442V296.796H189.738L189.546 294.9H189.378C189.042 295.412 188.658 295.828 188.226 296.148C187.81 296.468 187.338 296.7 186.81 296.844C186.298 297.004 185.746 297.084 185.154 297.084ZM194.719 296.796V284.172H196.423L196.615 286.26H196.783C196.911 285.86 197.087 285.484 197.311 285.132C197.535 284.764 197.839 284.468 198.223 284.244C198.607 284.004 199.079 283.884 199.639 283.884C199.879 283.884 200.095 283.908 200.287 283.956C200.495 283.988 200.647 284.028 200.743 284.076V286.02H199.951C199.407 286.02 198.935 286.116 198.535 286.308C198.151 286.484 197.831 286.74 197.575 287.076C197.319 287.412 197.127 287.812 196.999 288.276C196.887 288.74 196.831 289.236 196.831 289.764V296.796H194.719ZM202.687 296.796V284.172H204.391L204.583 286.068H204.751C205.087 285.556 205.463 285.14 205.879 284.82C206.311 284.5 206.783 284.268 207.295 284.124C207.823 283.964 208.383 283.884 208.975 283.884C209.775 283.884 210.471 284.02 211.063 284.292C211.671 284.564 212.143 285.004 212.479 285.612C212.831 286.22 213.007 287.044 213.007 288.084V296.796H210.895V288.372C210.895 287.844 210.823 287.412 210.679 287.076C210.551 286.74 210.367 286.476 210.127 286.284C209.903 286.092 209.623 285.956 209.287 285.876C208.967 285.796 208.607 285.756 208.207 285.756C207.615 285.756 207.055 285.9 206.527 286.188C205.999 286.476 205.575 286.892 205.255 287.436C204.951 287.98 204.799 288.628 204.799 289.38V296.796H202.687ZM221.251 297.084C220.003 297.084 218.947 296.852 218.083 296.388C217.235 295.908 216.587 295.18 216.139 294.204C215.707 293.228 215.491 291.988 215.491 290.484C215.491 288.964 215.707 287.724 216.139 286.764C216.587 285.788 217.243 285.068 218.107 284.604C218.971 284.124 220.051 283.884 221.347 283.884C222.531 283.884 223.523 284.116 224.323 284.58C225.123 285.028 225.723 285.708 226.123 286.62C226.539 287.516 226.747 288.644 226.747 290.004V291.012H217.675C217.707 292.02 217.851 292.852 218.107 293.508C218.379 294.148 218.779 294.62 219.307 294.924C219.835 295.212 220.499 295.356 221.299 295.356C221.843 295.356 222.315 295.292 222.715 295.164C223.131 295.02 223.475 294.82 223.747 294.564C224.035 294.308 224.251 294.004 224.395 293.652C224.539 293.3 224.619 292.916 224.635 292.5H226.699C226.683 293.172 226.555 293.796 226.315 294.372C226.075 294.932 225.723 295.412 225.259 295.812C224.795 296.212 224.227 296.524 223.555 296.748C222.883 296.972 222.115 297.084 221.251 297.084ZM217.723 289.428H224.563C224.563 288.724 224.483 288.132 224.323 287.652C224.163 287.172 223.931 286.78 223.627 286.476C223.339 286.172 222.995 285.956 222.595 285.828C222.211 285.684 221.771 285.612 221.275 285.612C220.539 285.612 219.915 285.748 219.403 286.02C218.891 286.292 218.499 286.708 218.227 287.268C217.955 287.828 217.787 288.548 217.723 289.428ZM230.439 301.164C230.055 301.164 229.719 301.132 229.431 301.068C229.159 301.02 228.975 300.988 228.879 300.972V299.436H229.935C230.319 299.436 230.695 299.356 231.063 299.196C231.431 299.036 231.775 298.764 232.095 298.38C232.415 297.996 232.687 297.468 232.911 296.796L228.015 284.172H230.223L232.743 290.676C232.855 290.98 232.983 291.356 233.127 291.804C233.287 292.236 233.439 292.684 233.583 293.148C233.743 293.612 233.871 294.02 233.967 294.372H234.111C234.175 294.116 234.255 293.828 234.351 293.508C234.447 293.188 234.543 292.86 234.639 292.524C234.751 292.172 234.855 291.844 234.951 291.54C235.063 291.22 235.151 290.94 235.215 290.7L237.351 284.172H239.487L235.215 296.436C234.975 297.124 234.711 297.756 234.423 298.332C234.135 298.924 233.815 299.428 233.463 299.844C233.111 300.26 232.687 300.58 232.191 300.804C231.695 301.044 231.111 301.164 230.439 301.164ZM249.421 297.084C248.765 297.084 248.253 296.964 247.885 296.724C247.517 296.468 247.253 296.14 247.093 295.74C246.933 295.324 246.853 294.884 246.853 294.42V285.948H245.221V284.172H246.901L247.285 280.644H248.965V284.172H251.341V285.948H248.965V294.108C248.965 294.508 249.037 294.812 249.181 295.02C249.325 295.212 249.597 295.308 249.997 295.308H251.341V296.7C251.181 296.78 250.989 296.844 250.765 296.892C250.541 296.94 250.309 296.98 250.069 297.012C249.845 297.06 249.629 297.084 249.421 297.084ZM258.778 297.084C257.498 297.084 256.418 296.852 255.538 296.388C254.674 295.908 254.01 295.18 253.546 294.204C253.098 293.228 252.874 291.988 252.874 290.484C252.874 288.964 253.098 287.724 253.546 286.764C254.01 285.788 254.674 285.068 255.538 284.604C256.418 284.124 257.498 283.884 258.778 283.884C260.058 283.884 261.13 284.124 261.994 284.604C262.874 285.068 263.538 285.788 263.986 286.764C264.434 287.724 264.658 288.964 264.658 290.484C264.658 291.988 264.434 293.228 263.986 294.204C263.538 295.18 262.874 295.908 261.994 296.388C261.13 296.852 260.058 297.084 258.778 297.084ZM258.778 295.308C259.594 295.308 260.274 295.148 260.818 294.828C261.362 294.508 261.77 294.012 262.042 293.34C262.33 292.652 262.474 291.788 262.474 290.748V290.22C262.474 289.164 262.33 288.3 262.042 287.628C261.77 286.956 261.362 286.46 260.818 286.14C260.274 285.82 259.594 285.66 258.778 285.66C257.962 285.66 257.274 285.82 256.714 286.14C256.17 286.46 255.762 286.956 255.49 287.628C255.218 288.3 255.082 289.164 255.082 290.22V290.748C255.082 291.788 255.218 292.652 255.49 293.34C255.762 294.012 256.17 294.508 256.714 294.828C257.274 295.148 257.962 295.308 258.778 295.308ZM277.097 297.084C275.881 297.084 274.857 296.852 274.025 296.388C273.209 295.908 272.585 295.18 272.153 294.204C271.737 293.212 271.529 291.972 271.529 290.484C271.529 288.996 271.737 287.764 272.153 286.788C272.585 285.812 273.217 285.084 274.049 284.604C274.897 284.124 275.937 283.884 277.169 283.884C278.033 283.884 278.777 283.996 279.401 284.22C280.041 284.444 280.569 284.772 280.985 285.204C281.401 285.636 281.705 286.156 281.897 286.764C282.105 287.372 282.209 288.068 282.209 288.852H280.073C280.073 288.116 279.969 287.516 279.761 287.052C279.569 286.572 279.257 286.22 278.825 285.996C278.393 285.756 277.825 285.636 277.121 285.636C276.417 285.636 275.809 285.796 275.297 286.116C274.785 286.42 274.393 286.908 274.121 287.58C273.849 288.252 273.713 289.14 273.713 290.244V290.748C273.713 291.788 273.841 292.652 274.097 293.34C274.369 294.028 274.761 294.532 275.273 294.852C275.785 295.172 276.409 295.332 277.145 295.332C277.865 295.332 278.441 295.204 278.873 294.948C279.321 294.692 279.641 294.324 279.833 293.844C280.041 293.364 280.145 292.788 280.145 292.116H282.209C282.209 292.82 282.105 293.476 281.897 294.084C281.705 294.692 281.401 295.22 280.985 295.668C280.569 296.116 280.041 296.468 279.401 296.724C278.761 296.964 277.993 297.084 277.097 297.084ZM284.742 296.796V279.444H286.854V285.756H287.022C287.342 285.324 287.702 284.972 288.102 284.7C288.502 284.428 288.942 284.228 289.422 284.1C289.918 283.956 290.454 283.884 291.03 283.884C291.83 283.884 292.526 284.02 293.118 284.292C293.726 284.564 294.198 285.004 294.534 285.612C294.886 286.22 295.062 287.044 295.062 288.084V296.796H292.95V288.372C292.95 287.844 292.878 287.412 292.734 287.076C292.606 286.74 292.422 286.476 292.182 286.284C291.958 286.092 291.678 285.956 291.342 285.876C291.022 285.796 290.662 285.756 290.262 285.756C289.67 285.756 289.11 285.9 288.582 286.188C288.054 286.46 287.63 286.868 287.31 287.412C287.006 287.94 286.854 288.596 286.854 289.38V296.796H284.742ZM301.433 297.084C300.969 297.084 300.505 297.028 300.041 296.916C299.577 296.804 299.145 296.62 298.745 296.364C298.345 296.108 298.025 295.756 297.785 295.308C297.545 294.844 297.425 294.268 297.425 293.58C297.425 292.716 297.633 292.004 298.049 291.444C298.465 290.884 299.041 290.452 299.777 290.148C300.529 289.828 301.417 289.612 302.441 289.5C303.465 289.372 304.577 289.308 305.777 289.308V287.868C305.777 287.404 305.697 287.004 305.537 286.668C305.377 286.332 305.089 286.076 304.673 285.9C304.273 285.708 303.697 285.612 302.945 285.612C302.225 285.612 301.649 285.708 301.217 285.9C300.801 286.076 300.505 286.308 300.329 286.596C300.169 286.884 300.089 287.204 300.089 287.556V287.916H298.049C298.033 287.836 298.025 287.756 298.025 287.676C298.025 287.596 298.025 287.5 298.025 287.388C298.025 286.62 298.233 285.98 298.649 285.468C299.081 284.94 299.681 284.548 300.449 284.292C301.217 284.02 302.097 283.884 303.089 283.884C304.145 283.884 305.025 284.036 305.729 284.34C306.449 284.644 306.985 285.076 307.337 285.636C307.705 286.196 307.889 286.868 307.889 287.652V294.492C307.889 294.796 307.961 295.012 308.105 295.14C308.249 295.252 308.425 295.308 308.633 295.308H309.569V296.7C309.345 296.796 309.097 296.876 308.825 296.94C308.553 297.02 308.241 297.06 307.889 297.06C307.473 297.06 307.129 296.972 306.857 296.796C306.585 296.636 306.377 296.412 306.233 296.124C306.089 295.82 305.993 295.484 305.945 295.116H305.777C305.489 295.516 305.121 295.868 304.673 296.172C304.241 296.46 303.753 296.684 303.209 296.844C302.665 297.004 302.073 297.084 301.433 297.084ZM301.961 295.308C302.473 295.308 302.953 295.228 303.401 295.068C303.865 294.908 304.273 294.684 304.625 294.396C304.977 294.092 305.257 293.732 305.465 293.316C305.673 292.9 305.777 292.444 305.777 291.948V290.892C304.481 290.892 303.377 290.964 302.465 291.108C301.553 291.252 300.849 291.508 300.353 291.876C299.873 292.244 299.633 292.764 299.633 293.436C299.633 293.868 299.729 294.22 299.921 294.492C300.113 294.764 300.385 294.972 300.737 295.116C301.089 295.244 301.497 295.308 301.961 295.308ZM311.344 296.796V284.172H313.048L313.24 286.068H313.408C313.744 285.556 314.12 285.14 314.536 284.82C314.968 284.5 315.44 284.268 315.952 284.124C316.48 283.964 317.04 283.884 317.632 283.884C318.432 283.884 319.128 284.02 319.72 284.292C320.328 284.564 320.8 285.004 321.136 285.612C321.488 286.22 321.664 287.044 321.664 288.084V296.796H319.552V288.372C319.552 287.844 319.48 287.412 319.336 287.076C319.208 286.74 319.024 286.476 318.784 286.284C318.56 286.092 318.28 285.956 317.944 285.876C317.624 285.796 317.264 285.756 316.864 285.756C316.272 285.756 315.712 285.9 315.184 286.188C314.656 286.476 314.232 286.892 313.912 287.436C313.608 287.98 313.456 288.628 313.456 289.38V296.796H311.344ZM327.003 301.164C326.395 301.164 325.835 301.036 325.323 300.78C324.811 300.54 324.403 300.188 324.099 299.724C323.795 299.26 323.643 298.708 323.643 298.068C323.643 297.364 323.835 296.78 324.219 296.316C324.619 295.852 325.091 295.508 325.635 295.284C325.235 295.092 324.923 294.828 324.699 294.492C324.475 294.14 324.363 293.756 324.363 293.34C324.363 292.78 324.563 292.308 324.963 291.924C325.379 291.54 325.883 291.284 326.475 291.156C325.931 290.804 325.499 290.356 325.179 289.812C324.875 289.252 324.723 288.636 324.723 287.964C324.723 287.164 324.907 286.46 325.275 285.852C325.659 285.244 326.235 284.764 327.003 284.412C327.787 284.06 328.739 283.884 329.859 283.884C330.371 283.884 330.851 283.924 331.299 284.004C331.747 284.068 332.147 284.18 332.499 284.34C333.059 284.084 333.475 283.756 333.747 283.356C334.035 282.956 334.211 282.548 334.275 282.132H336.363C336.363 282.612 336.251 283.068 336.027 283.5C335.819 283.916 335.531 284.268 335.163 284.556C334.795 284.828 334.347 285.012 333.819 285.108C334.219 285.492 334.515 285.924 334.707 286.404C334.915 286.884 335.019 287.404 335.019 287.964C335.019 288.764 334.827 289.476 334.443 290.1C334.075 290.708 333.515 291.188 332.763 291.54C332.011 291.892 331.067 292.068 329.931 292.068H327.963C327.531 292.068 327.179 292.156 326.907 292.332C326.635 292.492 326.499 292.756 326.499 293.124C326.499 293.444 326.635 293.708 326.907 293.916C327.179 294.108 327.531 294.204 327.963 294.204H333.099C334.027 294.204 334.787 294.516 335.379 295.14C335.971 295.748 336.267 296.532 336.267 297.492C336.267 298.18 336.091 298.796 335.739 299.34C335.403 299.9 334.923 300.34 334.299 300.66C333.691 300.996 332.979 301.164 332.163 301.164H327.003ZM327.603 299.556H332.139C332.507 299.556 332.843 299.476 333.147 299.316C333.451 299.172 333.691 298.964 333.867 298.692C334.043 298.42 334.131 298.124 334.131 297.804C334.131 297.26 333.971 296.828 333.651 296.508C333.331 296.188 332.931 296.028 332.451 296.028H327.603C327.091 296.028 326.659 296.204 326.307 296.556C325.955 296.892 325.779 297.308 325.779 297.804C325.779 298.332 325.955 298.756 326.307 299.076C326.659 299.396 327.091 299.556 327.603 299.556ZM329.883 290.484C330.907 290.484 331.667 290.26 332.163 289.812C332.659 289.364 332.907 288.748 332.907 287.964C332.907 287.196 332.659 286.588 332.163 286.14C331.667 285.692 330.907 285.468 329.883 285.468C328.859 285.468 328.091 285.692 327.579 286.14C327.083 286.588 326.835 287.196 326.835 287.964C326.835 288.46 326.947 288.9 327.171 289.284C327.395 289.668 327.731 289.964 328.179 290.172C328.627 290.38 329.195 290.484 329.883 290.484ZM343.243 297.084C341.995 297.084 340.939 296.852 340.075 296.388C339.227 295.908 338.579 295.18 338.131 294.204C337.699 293.228 337.483 291.988 337.483 290.484C337.483 288.964 337.699 287.724 338.131 286.764C338.579 285.788 339.235 285.068 340.099 284.604C340.963 284.124 342.043 283.884 343.339 283.884C344.523 283.884 345.515 284.116 346.315 284.58C347.115 285.028 347.715 285.708 348.115 286.62C348.531 287.516 348.739 288.644 348.739 290.004V291.012H339.667C339.699 292.02 339.843 292.852 340.099 293.508C340.371 294.148 340.771 294.62 341.299 294.924C341.827 295.212 342.491 295.356 343.291 295.356C343.835 295.356 344.307 295.292 344.707 295.164C345.123 295.02 345.467 294.82 345.739 294.564C346.027 294.308 346.243 294.004 346.387 293.652C346.531 293.3 346.611 292.916 346.627 292.5H348.691C348.675 293.172 348.547 293.796 348.307 294.372C348.067 294.932 347.715 295.412 347.251 295.812C346.787 296.212 346.219 296.524 345.547 296.748C344.875 296.972 344.107 297.084 343.243 297.084ZM339.715 289.428H346.555C346.555 288.724 346.475 288.132 346.315 287.652C346.155 287.172 345.923 286.78 345.619 286.476C345.331 286.172 344.987 285.956 344.587 285.828C344.203 285.684 343.763 285.612 343.267 285.612C342.531 285.612 341.907 285.748 341.395 286.02C340.883 286.292 340.491 286.708 340.219 287.268C339.947 287.828 339.779 288.548 339.715 289.428ZM36.608 329.084C35.952 329.084 35.44 328.964 35.072 328.724C34.704 328.468 34.44 328.14 34.28 327.74C34.12 327.324 34.04 326.884 34.04 326.42V317.948H32.408V316.172H34.088L34.472 312.644H36.152V316.172H38.528V317.948H36.152V326.108C36.152 326.508 36.224 326.812 36.368 327.02C36.512 327.212 36.784 327.308 37.184 327.308H38.528V328.7C38.368 328.78 38.176 328.844 37.952 328.892C37.728 328.94 37.496 328.98 37.256 329.012C37.032 329.06 36.816 329.084 36.608 329.084ZM40.781 328.796V311.444H42.893V317.756H43.061C43.381 317.324 43.741 316.972 44.141 316.7C44.541 316.428 44.981 316.228 45.461 316.1C45.957 315.956 46.493 315.884 47.069 315.884C47.869 315.884 48.565 316.02 49.157 316.292C49.765 316.564 50.237 317.004 50.573 317.612C50.925 318.22 51.101 319.044 51.101 320.084V328.796H48.989V320.372C48.989 319.844 48.917 319.412 48.773 319.076C48.645 318.74 48.461 318.476 48.221 318.284C47.997 318.092 47.717 317.956 47.381 317.876C47.061 317.796 46.701 317.756 46.301 317.756C45.709 317.756 45.149 317.9 44.621 318.188C44.093 318.46 43.669 318.868 43.349 319.412C43.045 319.94 42.893 320.596 42.893 321.38V328.796H40.781ZM59.3444 329.084C58.0964 329.084 57.0404 328.852 56.1764 328.388C55.3284 327.908 54.6804 327.18 54.2324 326.204C53.8004 325.228 53.5844 323.988 53.5844 322.484C53.5844 320.964 53.8004 319.724 54.2324 318.764C54.6804 317.788 55.3364 317.068 56.2004 316.604C57.0644 316.124 58.1444 315.884 59.4404 315.884C60.6244 315.884 61.6164 316.116 62.4164 316.58C63.2164 317.028 63.8164 317.708 64.2164 318.62C64.6324 319.516 64.8404 320.644 64.8404 322.004V323.012H55.7684C55.8004 324.02 55.9444 324.852 56.2004 325.508C56.4724 326.148 56.8724 326.62 57.4004 326.924C57.9284 327.212 58.5924 327.356 59.3924 327.356C59.9364 327.356 60.4084 327.292 60.8084 327.164C61.2244 327.02 61.5684 326.82 61.8404 326.564C62.1284 326.308 62.3444 326.004 62.4884 325.652C62.6324 325.3 62.7124 324.916 62.7284 324.5H64.7924C64.7764 325.172 64.6484 325.796 64.4084 326.372C64.1684 326.932 63.8164 327.412 63.3524 327.812C62.8884 328.212 62.3204 328.524 61.6484 328.748C60.9764 328.972 60.2084 329.084 59.3444 329.084ZM55.8164 321.428H62.6564C62.6564 320.724 62.5764 320.132 62.4164 319.652C62.2564 319.172 62.0244 318.78 61.7204 318.476C61.4324 318.172 61.0884 317.956 60.6884 317.828C60.3044 317.684 59.8644 317.612 59.3684 317.612C58.6324 317.612 58.0084 317.748 57.4964 318.02C56.9844 318.292 56.5924 318.708 56.3204 319.268C56.0484 319.828 55.8804 320.548 55.8164 321.428ZM74.8925 328.796L71.0765 316.172H73.2605L75.1805 323.108C75.2765 323.444 75.3645 323.812 75.4445 324.212C75.5405 324.596 75.6285 324.956 75.7085 325.292C75.8045 325.612 75.8685 325.86 75.9005 326.036H76.0445C76.1085 325.732 76.1805 325.388 76.2605 325.004C76.3565 324.62 76.4365 324.252 76.5005 323.9C76.5805 323.548 76.6445 323.276 76.6925 323.084L78.4205 316.172H80.7005L82.4525 323.084C82.5165 323.356 82.5885 323.676 82.6685 324.044C82.7485 324.396 82.8285 324.748 82.9085 325.1C83.0045 325.452 83.0685 325.764 83.1005 326.036H83.2445C83.3085 325.78 83.3805 325.484 83.4605 325.148C83.5405 324.796 83.6285 324.444 83.7245 324.092C83.8205 323.724 83.9085 323.404 83.9885 323.132L85.8845 316.172H87.9005L84.1085 328.796H81.9485L80.3165 322.268C80.2525 321.964 80.1725 321.612 80.0765 321.212C79.9805 320.796 79.8845 320.38 79.7885 319.964C79.7085 319.532 79.6365 319.156 79.5725 318.836H79.4285C79.3965 319.076 79.3405 319.38 79.2605 319.748C79.1965 320.116 79.1165 320.524 79.0205 320.972C78.9245 321.404 78.8125 321.836 78.6845 322.268L77.0525 328.796H74.8925ZM92.7459 329.084C92.2819 329.084 91.8179 329.028 91.3539 328.916C90.8899 328.804 90.4579 328.62 90.0579 328.364C89.6579 328.108 89.3379 327.756 89.0979 327.308C88.8579 326.844 88.7379 326.268 88.7379 325.58C88.7379 324.716 88.9459 324.004 89.3619 323.444C89.7779 322.884 90.3539 322.452 91.0899 322.148C91.8419 321.828 92.7299 321.612 93.7539 321.5C94.7779 321.372 95.8899 321.308 97.0899 321.308V319.868C97.0899 319.404 97.0099 319.004 96.8499 318.668C96.6899 318.332 96.4019 318.076 95.9859 317.9C95.5859 317.708 95.0099 317.612 94.2579 317.612C93.5379 317.612 92.9619 317.708 92.5299 317.9C92.1139 318.076 91.8179 318.308 91.6419 318.596C91.4819 318.884 91.4019 319.204 91.4019 319.556V319.916H89.3619C89.3459 319.836 89.3379 319.756 89.3379 319.676C89.3379 319.596 89.3379 319.5 89.3379 319.388C89.3379 318.62 89.5459 317.98 89.9619 317.468C90.3939 316.94 90.9939 316.548 91.7619 316.292C92.5299 316.02 93.4099 315.884 94.4019 315.884C95.4579 315.884 96.3379 316.036 97.0419 316.34C97.7619 316.644 98.2979 317.076 98.6499 317.636C99.0179 318.196 99.2019 318.868 99.2019 319.652V326.492C99.2019 326.796 99.2739 327.012 99.4179 327.14C99.5619 327.252 99.7379 327.308 99.9459 327.308H100.882V328.7C100.658 328.796 100.41 328.876 100.138 328.94C99.8659 329.02 99.5539 329.06 99.2019 329.06C98.7859 329.06 98.4419 328.972 98.1699 328.796C97.8979 328.636 97.6899 328.412 97.5459 328.124C97.4019 327.82 97.3059 327.484 97.2579 327.116H97.0899C96.8019 327.516 96.4339 327.868 95.9859 328.172C95.5539 328.46 95.0659 328.684 94.5219 328.844C93.9779 329.004 93.3859 329.084 92.7459 329.084ZM93.2739 327.308C93.7859 327.308 94.2659 327.228 94.7139 327.068C95.1779 326.908 95.5859 326.684 95.9379 326.396C96.2899 326.092 96.5699 325.732 96.7779 325.316C96.9859 324.9 97.0899 324.444 97.0899 323.948V322.892C95.7939 322.892 94.6899 322.964 93.7779 323.108C92.8659 323.252 92.1619 323.508 91.6659 323.876C91.1859 324.244 90.9459 324.764 90.9459 325.436C90.9459 325.868 91.0419 326.22 91.2339 326.492C91.4259 326.764 91.6979 326.972 92.0499 327.116C92.4019 327.244 92.8099 327.308 93.2739 327.308ZM103.736 333.164C103.352 333.164 103.016 333.132 102.728 333.068C102.456 333.02 102.272 332.988 102.176 332.972V331.436H103.232C103.616 331.436 103.992 331.356 104.36 331.196C104.728 331.036 105.072 330.764 105.392 330.38C105.712 329.996 105.984 329.468 106.208 328.796L101.312 316.172H103.52L106.04 322.676C106.152 322.98 106.28 323.356 106.424 323.804C106.584 324.236 106.736 324.684 106.88 325.148C107.04 325.612 107.168 326.02 107.264 326.372H107.408C107.472 326.116 107.552 325.828 107.648 325.508C107.744 325.188 107.84 324.86 107.936 324.524C108.048 324.172 108.152 323.844 108.248 323.54C108.36 323.22 108.448 322.94 108.512 322.7L110.648 316.172H112.784L108.512 328.436C108.272 329.124 108.008 329.756 107.72 330.332C107.432 330.924 107.112 331.428 106.76 331.844C106.408 332.26 105.984 332.58 105.488 332.804C104.992 333.044 104.408 333.164 103.736 333.164ZM120.845 333.164C120.461 333.164 120.125 333.132 119.837 333.068C119.565 333.02 119.381 332.988 119.285 332.972V331.436H120.341C120.725 331.436 121.101 331.356 121.469 331.196C121.837 331.036 122.181 330.764 122.501 330.38C122.821 329.996 123.093 329.468 123.317 328.796L118.421 316.172H120.629L123.149 322.676C123.261 322.98 123.389 323.356 123.533 323.804C123.693 324.236 123.845 324.684 123.989 325.148C124.149 325.612 124.277 326.02 124.373 326.372H124.517C124.581 326.116 124.661 325.828 124.757 325.508C124.853 325.188 124.949 324.86 125.045 324.524C125.157 324.172 125.261 323.844 125.357 323.54C125.469 323.22 125.557 322.94 125.621 322.7L127.757 316.172H129.893L125.621 328.436C125.381 329.124 125.117 329.756 124.829 330.332C124.541 330.924 124.221 331.428 123.869 331.844C123.517 332.26 123.093 332.58 122.597 332.804C122.101 333.044 121.517 333.164 120.845 333.164ZM136.926 329.084C135.646 329.084 134.566 328.852 133.686 328.388C132.822 327.908 132.158 327.18 131.694 326.204C131.246 325.228 131.022 323.988 131.022 322.484C131.022 320.964 131.246 319.724 131.694 318.764C132.158 317.788 132.822 317.068 133.686 316.604C134.566 316.124 135.646 315.884 136.926 315.884C138.206 315.884 139.278 316.124 140.142 316.604C141.022 317.068 141.686 317.788 142.134 318.764C142.582 319.724 142.806 320.964 142.806 322.484C142.806 323.988 142.582 325.228 142.134 326.204C141.686 327.18 141.022 327.908 140.142 328.388C139.278 328.852 138.206 329.084 136.926 329.084ZM136.926 327.308C137.742 327.308 138.422 327.148 138.966 326.828C139.51 326.508 139.918 326.012 140.19 325.34C140.478 324.652 140.622 323.788 140.622 322.748V322.22C140.622 321.164 140.478 320.3 140.19 319.628C139.918 318.956 139.51 318.46 138.966 318.14C138.422 317.82 137.742 317.66 136.926 317.66C136.11 317.66 135.422 317.82 134.862 318.14C134.318 318.46 133.91 318.956 133.638 319.628C133.366 320.3 133.23 321.164 133.23 322.22V322.748C133.23 323.788 133.366 324.652 133.638 325.34C133.91 326.012 134.318 326.508 134.862 326.828C135.422 327.148 136.11 327.308 136.926 327.308ZM149.341 329.084C148.125 329.084 147.149 328.772 146.413 328.148C145.677 327.524 145.309 326.436 145.309 324.884V316.172H147.421V324.596C147.421 325.124 147.485 325.556 147.613 325.892C147.741 326.228 147.925 326.492 148.165 326.684C148.405 326.876 148.685 327.012 149.005 327.092C149.341 327.172 149.701 327.212 150.085 327.212C150.693 327.212 151.253 327.068 151.765 326.78C152.277 326.492 152.693 326.076 153.013 325.532C153.349 324.972 153.517 324.324 153.517 323.588V316.172H155.629V328.796H153.925L153.733 326.9H153.565C153.229 327.412 152.845 327.828 152.413 328.148C151.997 328.468 151.525 328.7 150.997 328.844C150.485 329.004 149.933 329.084 149.341 329.084ZM168.962 329.084C167.714 329.084 166.658 328.852 165.794 328.388C164.946 327.908 164.298 327.18 163.85 326.204C163.418 325.228 163.202 323.988 163.202 322.484C163.202 320.964 163.418 319.724 163.85 318.764C164.298 317.788 164.954 317.068 165.818 316.604C166.682 316.124 167.762 315.884 169.058 315.884C170.242 315.884 171.234 316.116 172.034 316.58C172.834 317.028 173.434 317.708 173.834 318.62C174.25 319.516 174.458 320.644 174.458 322.004V323.012H165.386C165.418 324.02 165.562 324.852 165.818 325.508C166.09 326.148 166.49 326.62 167.018 326.924C167.546 327.212 168.21 327.356 169.01 327.356C169.554 327.356 170.026 327.292 170.426 327.164C170.842 327.02 171.186 326.82 171.458 326.564C171.746 326.308 171.962 326.004 172.106 325.652C172.25 325.3 172.33 324.916 172.346 324.5H174.41C174.394 325.172 174.266 325.796 174.026 326.372C173.786 326.932 173.434 327.412 172.97 327.812C172.506 328.212 171.938 328.524 171.266 328.748C170.594 328.972 169.826 329.084 168.962 329.084ZM165.434 321.428H172.274C172.274 320.724 172.194 320.132 172.034 319.652C171.874 319.172 171.642 318.78 171.338 318.476C171.05 318.172 170.706 317.956 170.306 317.828C169.922 317.684 169.482 317.612 168.986 317.612C168.25 317.612 167.626 317.748 167.114 318.02C166.602 318.292 166.21 318.708 165.938 319.268C165.666 319.828 165.498 320.548 165.434 321.428ZM175.68 328.796L180.216 322.34L175.896 316.172H178.44L181.512 320.684H181.632L184.704 316.172H187.104L182.784 322.268L187.344 328.796H184.824L181.512 323.924H181.392L178.08 328.796H175.68ZM189.304 332.948V316.172H190.984L191.2 317.972H191.368C191.8 317.268 192.352 316.748 193.024 316.412C193.696 316.06 194.456 315.884 195.304 315.884C196.36 315.884 197.256 316.116 197.992 316.58C198.728 317.044 199.296 317.772 199.696 318.764C200.096 319.74 200.296 321.012 200.296 322.58C200.296 324.052 200.088 325.276 199.672 326.252C199.272 327.212 198.704 327.924 197.968 328.388C197.232 328.852 196.376 329.084 195.4 329.084C194.856 329.084 194.344 329.02 193.864 328.892C193.384 328.764 192.952 328.564 192.568 328.292C192.184 328.004 191.848 327.644 191.56 327.212H191.416V332.948H189.304ZM194.728 327.236C195.512 327.236 196.152 327.084 196.648 326.78C197.144 326.46 197.512 325.972 197.752 325.316C197.992 324.644 198.112 323.788 198.112 322.748V322.244C198.112 321.14 197.984 320.26 197.728 319.604C197.472 318.932 197.096 318.452 196.6 318.164C196.12 317.876 195.52 317.732 194.8 317.732C194.016 317.732 193.368 317.908 192.856 318.26C192.36 318.596 191.992 319.108 191.752 319.796C191.528 320.484 191.416 321.324 191.416 322.316V322.676C191.416 323.556 191.496 324.292 191.656 324.884C191.832 325.46 192.072 325.924 192.376 326.276C192.696 326.628 193.056 326.876 193.456 327.02C193.856 327.164 194.28 327.236 194.728 327.236ZM207.962 329.084C206.714 329.084 205.658 328.852 204.794 328.388C203.946 327.908 203.298 327.18 202.85 326.204C202.418 325.228 202.202 323.988 202.202 322.484C202.202 320.964 202.418 319.724 202.85 318.764C203.298 317.788 203.954 317.068 204.818 316.604C205.682 316.124 206.762 315.884 208.058 315.884C209.242 315.884 210.234 316.116 211.034 316.58C211.834 317.028 212.434 317.708 212.834 318.62C213.25 319.516 213.458 320.644 213.458 322.004V323.012H204.386C204.418 324.02 204.562 324.852 204.818 325.508C205.09 326.148 205.49 326.62 206.018 326.924C206.546 327.212 207.21 327.356 208.01 327.356C208.554 327.356 209.026 327.292 209.426 327.164C209.842 327.02 210.186 326.82 210.458 326.564C210.746 326.308 210.962 326.004 211.106 325.652C211.25 325.3 211.33 324.916 211.346 324.5H213.41C213.394 325.172 213.266 325.796 213.026 326.372C212.786 326.932 212.434 327.412 211.97 327.812C211.506 328.212 210.938 328.524 210.266 328.748C209.594 328.972 208.826 329.084 207.962 329.084ZM204.434 321.428H211.274C211.274 320.724 211.194 320.132 211.034 319.652C210.874 319.172 210.642 318.78 210.338 318.476C210.05 318.172 209.706 317.956 209.306 317.828C208.922 317.684 208.482 317.612 207.986 317.612C207.25 317.612 206.626 317.748 206.114 318.02C205.602 318.292 205.21 318.708 204.938 319.268C204.666 319.828 204.498 320.548 204.434 321.428ZM216.07 328.796V316.172H217.774L217.966 318.26H218.134C218.262 317.86 218.438 317.484 218.662 317.132C218.886 316.764 219.19 316.468 219.574 316.244C219.958 316.004 220.43 315.884 220.99 315.884C221.23 315.884 221.446 315.908 221.638 315.956C221.846 315.988 221.998 316.028 222.094 316.076V318.02H221.302C220.758 318.02 220.286 318.116 219.886 318.308C219.502 318.484 219.182 318.74 218.926 319.076C218.67 319.412 218.478 319.812 218.35 320.276C218.238 320.74 218.182 321.236 218.182 321.764V328.796H216.07ZM224.039 313.796V311.444H226.151V313.796H224.039ZM224.039 328.796V316.172H226.151V328.796H224.039ZM234.469 329.084C233.221 329.084 232.165 328.852 231.301 328.388C230.453 327.908 229.805 327.18 229.357 326.204C228.925 325.228 228.709 323.988 228.709 322.484C228.709 320.964 228.925 319.724 229.357 318.764C229.805 317.788 230.461 317.068 231.325 316.604C232.189 316.124 233.269 315.884 234.565 315.884C235.749 315.884 236.741 316.116 237.541 316.58C238.341 317.028 238.941 317.708 239.341 318.62C239.757 319.516 239.965 320.644 239.965 322.004V323.012H230.893C230.925 324.02 231.069 324.852 231.325 325.508C231.597 326.148 231.997 326.62 232.525 326.924C233.053 327.212 233.717 327.356 234.517 327.356C235.061 327.356 235.533 327.292 235.933 327.164C236.349 327.02 236.693 326.82 236.965 326.564C237.253 326.308 237.469 326.004 237.613 325.652C237.757 325.3 237.837 324.916 237.853 324.5H239.917C239.901 325.172 239.773 325.796 239.533 326.372C239.293 326.932 238.941 327.412 238.477 327.812C238.013 328.212 237.445 328.524 236.773 328.748C236.101 328.972 235.333 329.084 234.469 329.084ZM230.941 321.428H237.781C237.781 320.724 237.701 320.132 237.541 319.652C237.381 319.172 237.149 318.78 236.845 318.476C236.557 318.172 236.213 317.956 235.813 317.828C235.429 317.684 234.989 317.612 234.493 317.612C233.757 317.612 233.133 317.748 232.621 318.02C232.109 318.292 231.717 318.708 231.445 319.268C231.173 319.828 231.005 320.548 230.941 321.428ZM242.578 328.796V316.172H244.282L244.474 318.068H244.642C244.978 317.556 245.354 317.14 245.77 316.82C246.202 316.5 246.674 316.268 247.186 316.124C247.714 315.964 248.274 315.884 248.866 315.884C249.666 315.884 250.362 316.02 250.954 316.292C251.562 316.564 252.034 317.004 252.37 317.612C252.722 318.22 252.898 319.044 252.898 320.084V328.796H250.786V320.372C250.786 319.844 250.714 319.412 250.57 319.076C250.442 318.74 250.258 318.476 250.018 318.284C249.794 318.092 249.514 317.956 249.178 317.876C248.858 317.796 248.498 317.756 248.098 317.756C247.506 317.756 246.946 317.9 246.418 318.188C245.89 318.476 245.466 318.892 245.146 319.436C244.842 319.98 244.69 320.628 244.69 321.38V328.796H242.578ZM260.901 329.084C259.685 329.084 258.661 328.852 257.829 328.388C257.013 327.908 256.389 327.18 255.957 326.204C255.541 325.212 255.333 323.972 255.333 322.484C255.333 320.996 255.541 319.764 255.957 318.788C256.389 317.812 257.021 317.084 257.853 316.604C258.701 316.124 259.741 315.884 260.973 315.884C261.837 315.884 262.581 315.996 263.205 316.22C263.845 316.444 264.373 316.772 264.789 317.204C265.205 317.636 265.509 318.156 265.701 318.764C265.909 319.372 266.013 320.068 266.013 320.852H263.877C263.877 320.116 263.773 319.516 263.565 319.052C263.373 318.572 263.061 318.22 262.629 317.996C262.197 317.756 261.629 317.636 260.925 317.636C260.221 317.636 259.613 317.796 259.101 318.116C258.589 318.42 258.197 318.908 257.925 319.58C257.653 320.252 257.517 321.14 257.517 322.244V322.748C257.517 323.788 257.645 324.652 257.901 325.34C258.173 326.028 258.565 326.532 259.077 326.852C259.589 327.172 260.213 327.332 260.949 327.332C261.669 327.332 262.245 327.204 262.677 326.948C263.125 326.692 263.445 326.324 263.637 325.844C263.845 325.364 263.949 324.788 263.949 324.116H266.013C266.013 324.82 265.909 325.476 265.701 326.084C265.509 326.692 265.205 327.22 264.789 327.668C264.373 328.116 263.845 328.468 263.205 328.724C262.565 328.964 261.797 329.084 260.901 329.084ZM273.587 329.084C272.339 329.084 271.283 328.852 270.419 328.388C269.571 327.908 268.923 327.18 268.475 326.204C268.043 325.228 267.827 323.988 267.827 322.484C267.827 320.964 268.043 319.724 268.475 318.764C268.923 317.788 269.579 317.068 270.443 316.604C271.307 316.124 272.387 315.884 273.683 315.884C274.867 315.884 275.859 316.116 276.659 316.58C277.459 317.028 278.059 317.708 278.459 318.62C278.875 319.516 279.083 320.644 279.083 322.004V323.012H270.011C270.043 324.02 270.187 324.852 270.443 325.508C270.715 326.148 271.115 326.62 271.643 326.924C272.171 327.212 272.835 327.356 273.635 327.356C274.179 327.356 274.651 327.292 275.051 327.164C275.467 327.02 275.811 326.82 276.083 326.564C276.371 326.308 276.587 326.004 276.731 325.652C276.875 325.3 276.955 324.916 276.971 324.5H279.035C279.019 325.172 278.891 325.796 278.651 326.372C278.411 326.932 278.059 327.412 277.595 327.812C277.131 328.212 276.563 328.524 275.891 328.748C275.219 328.972 274.451 329.084 273.587 329.084ZM270.059 321.428H276.899C276.899 320.724 276.819 320.132 276.659 319.652C276.499 319.172 276.267 318.78 275.963 318.476C275.675 318.172 275.331 317.956 274.931 317.828C274.547 317.684 274.107 317.612 273.611 317.612C272.875 317.612 272.251 317.748 271.739 318.02C271.227 318.292 270.835 318.708 270.563 319.268C270.291 319.828 270.123 320.548 270.059 321.428ZM287.215 328.796V317.948H285.343V316.172H287.215V314.156C287.215 313.66 287.287 313.196 287.431 312.764C287.575 312.316 287.847 311.956 288.247 311.684C288.647 311.396 289.207 311.252 289.927 311.252C290.151 311.252 290.367 311.268 290.575 311.3C290.799 311.316 291.007 311.348 291.199 311.396C291.407 311.428 291.591 311.468 291.751 311.516V313.028H290.479C290.079 313.028 289.783 313.132 289.591 313.34C289.415 313.532 289.327 313.812 289.327 314.18V316.172H291.751V317.948H289.327V328.796H287.215ZM298.504 329.084C297.224 329.084 296.144 328.852 295.264 328.388C294.4 327.908 293.736 327.18 293.272 326.204C292.824 325.228 292.6 323.988 292.6 322.484C292.6 320.964 292.824 319.724 293.272 318.764C293.736 317.788 294.4 317.068 295.264 316.604C296.144 316.124 297.224 315.884 298.504 315.884C299.784 315.884 300.856 316.124 301.72 316.604C302.6 317.068 303.264 317.788 303.712 318.764C304.16 319.724 304.384 320.964 304.384 322.484C304.384 323.988 304.16 325.228 303.712 326.204C303.264 327.18 302.6 327.908 301.72 328.388C300.856 328.852 299.784 329.084 298.504 329.084ZM298.504 327.308C299.32 327.308 300 327.148 300.544 326.828C301.088 326.508 301.496 326.012 301.768 325.34C302.056 324.652 302.2 323.788 302.2 322.748V322.22C302.2 321.164 302.056 320.3 301.768 319.628C301.496 318.956 301.088 318.46 300.544 318.14C300 317.82 299.32 317.66 298.504 317.66C297.688 317.66 297 317.82 296.44 318.14C295.896 318.46 295.488 318.956 295.216 319.628C294.944 320.3 294.808 321.164 294.808 322.22V322.748C294.808 323.788 294.944 324.652 295.216 325.34C295.488 326.012 295.896 326.508 296.44 326.828C297 327.148 297.688 327.308 298.504 327.308ZM312.192 329.084C310.912 329.084 309.832 328.852 308.952 328.388C308.088 327.908 307.424 327.18 306.96 326.204C306.512 325.228 306.288 323.988 306.288 322.484C306.288 320.964 306.512 319.724 306.96 318.764C307.424 317.788 308.088 317.068 308.952 316.604C309.832 316.124 310.912 315.884 312.192 315.884C313.472 315.884 314.544 316.124 315.408 316.604C316.288 317.068 316.952 317.788 317.4 318.764C317.848 319.724 318.072 320.964 318.072 322.484C318.072 323.988 317.848 325.228 317.4 326.204C316.952 327.18 316.288 327.908 315.408 328.388C314.544 328.852 313.472 329.084 312.192 329.084ZM312.192 327.308C313.008 327.308 313.688 327.148 314.232 326.828C314.776 326.508 315.184 326.012 315.456 325.34C315.744 324.652 315.888 323.788 315.888 322.748V322.22C315.888 321.164 315.744 320.3 315.456 319.628C315.184 318.956 314.776 318.46 314.232 318.14C313.688 317.82 313.008 317.66 312.192 317.66C311.376 317.66 310.688 317.82 310.128 318.14C309.584 318.46 309.176 318.956 308.904 319.628C308.632 320.3 308.496 321.164 308.496 322.22V322.748C308.496 323.788 308.632 324.652 308.904 325.34C309.176 326.012 309.584 326.508 310.128 326.828C310.688 327.148 311.376 327.308 312.192 327.308ZM324.991 329.084C323.951 329.084 323.055 328.852 322.303 328.388C321.567 327.924 320.991 327.204 320.575 326.228C320.175 325.236 319.975 323.956 319.975 322.388C319.975 320.9 320.183 319.676 320.599 318.716C321.015 317.756 321.591 317.044 322.327 316.58C323.063 316.116 323.919 315.884 324.895 315.884C325.455 315.884 325.975 315.948 326.455 316.076C326.935 316.204 327.359 316.404 327.727 316.676C328.111 316.948 328.447 317.308 328.735 317.756H328.879V311.444H330.991V328.796H329.287L329.095 326.996H328.927C328.495 327.7 327.935 328.228 327.247 328.58C326.559 328.916 325.807 329.084 324.991 329.084ZM325.495 327.236C326.295 327.236 326.943 327.06 327.439 326.708C327.935 326.356 328.295 325.844 328.519 325.172C328.759 324.5 328.879 323.668 328.879 322.676V322.292C328.879 321.428 328.791 320.7 328.615 320.108C328.439 319.516 328.199 319.044 327.895 318.692C327.591 318.34 327.239 318.092 326.839 317.948C326.439 317.804 326.015 317.732 325.567 317.732C324.783 317.732 324.143 317.892 323.647 318.212C323.151 318.516 322.783 319.004 322.543 319.676C322.303 320.332 322.183 321.188 322.183 322.244V322.748C322.183 323.836 322.311 324.716 322.567 325.388C322.823 326.044 323.191 326.516 323.671 326.804C324.167 327.092 324.775 327.236 325.495 327.236ZM334.792 328.796V326.276H337.144V328.796H334.792Z" fill="black"/>
<defs>
<clipPath id="clip0_426_326">
<rect width="80" height="80" fill="white" transform="translate(32 32.7964)"/>
</clipPath>
</defs>
</svg>
